<?xml version="1.0" encoding="utf-8" standalone="no"?>
<!DOCTYPE svg PUBLIC "-//W3C//DTD SVG 1.1//EN"
  "http://www.w3.org/Graphics/SVG/1.1/DTD/svg11.dtd">
<!-- Created with matplotlib (http://matplotlib.org/) -->
<svg height="360pt" version="1.1" viewBox="0 0 360 360" width="360pt" xmlns="http://www.w3.org/2000/svg" xmlns:xlink="http://www.w3.org/1999/xlink">
 <defs>
  <style type="text/css">
*{stroke-linecap:butt;stroke-linejoin:round;}
  </style>
 </defs>
 <g id="figure_1">
  <g id="patch_1">
   <path d="M 0 360 
L 360 360 
L 360 0 
L 0 0 
z
" style="fill:#ffffff;"/>
  </g>
  <g id="axes_1">
   <g id="line2d_1">
    <path clip-path="url(#pf748698c32)" d="M 78.358357 218.862598 
L 74.886287 218.451896 
L 66.086481 217.428375 
L 59.406363 216.884243 
L 53.100288 216.597934 
L 47.713238 216.554598 
L 41.338061 216.741741 
L 37.457953 217.043934 
L 34.926616 217.425072 
L 32.786483 217.942456 
L 31.104516 218.571719 
L 30.317284 218.805915 
L 30.218992 218.714931 
L 30.295686 218.586306 
L 30.837661 218.374082 
L 32.285147 218.160711 
L 35.121757 218.014409 
L 42.214418 217.940287 
L 51.130176 218.045662 
L 61.161117 218.401321 
L 76.909173 218.976645 
L 78.700123 218.843784 
L 78.700123 218.843784 
" style="fill:none;stroke:#000000;stroke-linecap:square;stroke-opacity:0.7;stroke-width:1.2;"/>
   </g>
   <g id="line2d_2">
    <path clip-path="url(#pf748698c32)" d="M 78.142971 200.023011 
L 60.031819 198.200871 
L 53.486774 197.903715 
L 48.218477 197.865792 
L 42.896909 198.041715 
L 38.216501 198.403488 
L 35.081286 198.84202 
L 32.351032 199.45751 
L 30.559891 200.096519 
L 29.724548 200.376088 
L 29.731122 200.351626 
L 30.091977 200.163721 
L 31.414742 199.836634 
L 34.233552 199.435716 
L 38.133785 199.11875 
L 42.99782 198.941824 
L 48.64357 198.957809 
L 57.31347 199.243718 
L 77.959481 200.021165 
L 78.383218 199.988668 
L 78.383218 199.988668 
" style="fill:none;stroke:#000000;stroke-linecap:square;stroke-opacity:0.7;stroke-width:1.2;"/>
   </g>
   <g id="line2d_3">
    <path clip-path="url(#pf748698c32)" d="M 77.814459 181.148846 
L 64.21486 179.814497 
L 56.650402 179.349101 
L 50.262306 179.180974 
L 44.862541 179.260105 
L 39.691036 179.563375 
L 35.78035 179.986027 
L 33.03515 180.464961 
L 30.812962 181.082151 
L 29.567656 181.572195 
L 30.290503 181.387711 
L 33.133572 180.856507 
L 36.81512 180.370493 
L 41.001695 180.034744 
L 45.426435 179.896895 
L 50.889415 179.947767 
L 60.543904 180.30987 
L 78.092571 181.135205 
L 78.092571 181.135205 
" style="fill:none;stroke:#000000;stroke-linecap:square;stroke-opacity:0.7;stroke-width:1.2;"/>
   </g>
   <g id="line2d_4">
    <path clip-path="url(#pf748698c32)" d="M 77.457445 162.255359 
L 64.214131 161.15603 
L 56.058082 160.726268 
L 48.966655 160.579661 
L 43.056491 160.692789 
L 37.789758 161.010444 
L 34.527791 161.375293 
L 31.854258 161.901825 
L 29.917061 162.543034 
L 29.473696 162.748564 
L 29.601265 162.751233 
L 31.07312 162.511959 
L 37.815791 161.331221 
L 41.625537 160.911363 
L 45.944036 160.672844 
L 50.59001 160.627868 
L 57.521523 160.796036 
L 65.582569 161.210558 
L 73.994842 161.870153 
L 77.955269 162.174805 
L 77.955269 162.174805 
" style="fill:none;stroke:#000000;stroke-linecap:square;stroke-opacity:0.7;stroke-width:1.2;"/>
   </g>
   <g id="line2d_5">
    <path clip-path="url(#pf748698c32)" d="M 77.223169 143.353526 
L 62.032061 142.415067 
L 52.920322 142.126263 
L 45.623933 142.119059 
L 38.766041 142.346408 
L 34.444926 142.656333 
L 32.345556 142.973642 
L 30.377726 143.518098 
L 29.465171 143.893494 
L 29.541107 143.915851 
L 30.099493 143.900743 
L 32.055933 143.580723 
L 40.450362 141.905188 
L 44.65031 141.386278 
L 48.387919 141.141774 
L 53.204964 141.057873 
L 58.274353 141.169917 
L 64.432712 141.521911 
L 70.357114 142.076214 
L 75.27837 142.724905 
L 77.997145 143.049875 
L 77.997145 143.049875 
" style="fill:none;stroke:#000000;stroke-linecap:square;stroke-opacity:0.7;stroke-width:1.2;"/>
   </g>
   <g id="line2d_6">
    <path clip-path="url(#pf748698c32)" d="M 141.214476 218.835753 
L 139.040714 218.577996 
L 124.978206 216.606906 
L 119.153791 216.125764 
L 114.131958 215.925407 
L 108.34369 215.92819 
L 103.382148 216.11737 
L 100.014284 216.464174 
L 97.589675 216.90129 
L 95.291151 217.510184 
L 93.480933 218.178064 
L 92.451184 218.757716 
L 92.445498 218.915491 
L 92.848869 219.009895 
L 95.048374 219.057242 
L 112.583805 219.156821 
L 132.685661 219.319209 
L 138.141408 219.169462 
L 141.559573 218.861388 
L 141.559573 218.861388 
" style="fill:none;stroke:#000000;stroke-linecap:square;stroke-opacity:0.7;stroke-width:1.2;"/>
   </g>
   <g id="line2d_7">
    <path clip-path="url(#pf748698c32)" d="M 141.02909 199.963876 
L 137.581975 199.467939 
L 128.914598 198.207699 
L 122.922706 197.575787 
L 117.847442 197.246514 
L 112.549706 197.141752 
L 107.535045 197.270418 
L 103.086686 197.571311 
L 99.547498 198.01982 
L 96.956501 198.533675 
L 94.579783 199.232 
L 93.111986 199.868097 
L 92.345973 200.426748 
L 92.345462 200.607401 
L 92.65507 200.696468 
L 93.891262 200.693771 
L 104.664098 200.309795 
L 113.519026 200.27 
L 133.674165 200.281827 
L 140.610113 200.047568 
L 141.156482 200.01816 
L 141.156482 200.01816 
" style="fill:none;stroke:#000000;stroke-linecap:square;stroke-opacity:0.7;stroke-width:1.2;"/>
   </g>
   <g id="line2d_8">
    <path clip-path="url(#pf748698c32)" d="M 140.749698 181.107305 
L 124.385649 178.871852 
L 119.135846 178.478642 
L 114.359389 178.323753 
L 109.660451 178.3904 
L 104.533185 178.698017 
L 100.6082 179.128404 
L 97.088647 179.735805 
L 94.637612 180.387126 
L 93.119638 180.995258 
L 92.365204 181.510107 
L 92.309209 181.74458 
L 92.533321 181.869932 
L 93.32879 181.948816 
L 95.874243 181.875288 
L 108.799609 181.321752 
L 118.273336 181.238948 
L 140.820713 181.175758 
L 140.820713 181.175758 
" style="fill:none;stroke:#000000;stroke-linecap:square;stroke-opacity:0.7;stroke-width:1.2;"/>
   </g>
   <g id="line2d_9">
    <path clip-path="url(#pf748698c32)" d="M 140.537216 162.238972 
L 130.202821 160.757454 
L 123.685956 160.074777 
L 117.644967 159.684014 
L 112.546563 159.58667 
L 108.072457 159.709865 
L 102.835928 160.086121 
L 98.889956 160.595178 
L 95.820532 161.230193 
L 93.759127 161.878713 
L 92.604064 162.432548 
L 92.270098 162.765577 
L 92.305237 162.894804 
L 92.606701 163.02598 
L 93.456369 163.11234 
L 95.548666 163.078685 
L 101.606203 162.669878 
L 109.416898 162.21714 
L 117.572677 161.990705 
L 126.826802 161.939122 
L 135.510093 162.104374 
L 140.767106 162.311132 
L 140.767106 162.311132 
" style="fill:none;stroke:#000000;stroke-linecap:square;stroke-opacity:0.7;stroke-width:1.2;"/>
   </g>
   <g id="line2d_10">
    <path clip-path="url(#pf748698c32)" d="M 140.474554 143.407145 
L 132.881022 142.383746 
L 126.28832 141.69035 
L 119.768818 141.218011 
L 113.816534 141.022032 
L 109.005345 141.077403 
L 103.608859 141.367223 
L 99.591713 141.754407 
L 96.901781 142.193576 
L 94.531521 142.795171 
L 92.879812 143.421878 
L 92.259502 143.862307 
L 92.330652 144.037922 
L 92.731376 144.178104 
L 93.975989 144.298264 
L 96.158404 144.256708 
L 100.070507 143.917673 
L 113.11646 142.634594 
L 118.645931 142.374709 
L 123.995217 142.312886 
L 130.13459 142.463489 
L 135.426098 142.808643 
L 140.93208 143.345434 
L 140.93208 143.345434 
" style="fill:none;stroke:#000000;stroke-linecap:square;stroke-opacity:0.7;stroke-width:1.2;"/>
   </g>
   <g id="line2d_11">
    <path clip-path="url(#pf748698c32)" d="M 204.140401 218.867954 
L 202.723408 218.708953 
L 198.290927 217.890575 
L 191.069427 216.592396 
L 186.030408 215.908046 
L 181.375079 215.485725 
L 176.679997 215.281057 
L 171.297526 215.288001 
L 167.05703 215.488348 
L 163.634358 215.871889 
L 161.161792 216.350805 
L 158.770817 217.060862 
L 156.860385 217.898555 
L 155.708778 218.639452 
L 155.261571 219.170838 
L 155.307806 219.366911 
L 155.645036 219.504794 
L 156.639374 219.57681 
L 193.08132 219.859175 
L 198.924484 219.557131 
L 202.987922 219.121928 
L 204.510005 218.92763 
L 204.510005 218.92763 
" style="fill:none;stroke:#000000;stroke-linecap:square;stroke-opacity:0.7;stroke-width:1.2;"/>
   </g>
   <g id="line2d_12">
    <path clip-path="url(#pf748698c32)" d="M 203.946348 199.983034 
L 201.643376 199.622277 
L 189.17801 197.429803 
L 184.207876 196.855442 
L 179.677247 196.550991 
L 175.366132 196.477785 
L 170.772031 196.617188 
L 166.518654 196.945665 
L 162.967071 197.426147 
L 160.419533 197.954407 
L 158.00275 198.6953 
L 156.496964 199.367969 
L 155.453803 200.089589 
L 155.201028 200.484807 
L 155.293365 200.725641 
L 155.68608 200.887259 
L 156.676152 200.99184 
L 160.03899 201.003268 
L 176.306609 200.930403 
L 187.791306 200.85529 
L 196.533785 200.55324 
L 204.132903 200.107139 
L 204.132903 200.107139 
" style="fill:none;stroke:#000000;stroke-linecap:square;stroke-opacity:0.7;stroke-width:1.2;"/>
   </g>
   <g id="line2d_13">
    <path clip-path="url(#pf748698c32)" d="M 203.780383 181.101874 
L 201.139719 180.65495 
L 191.005682 178.875683 
L 185.730112 178.201069 
L 180.935021 177.8112 
L 176.639358 177.68057 
L 171.878654 177.788894 
L 167.271026 178.116509 
L 163.010195 178.650025 
L 159.939408 179.273551 
L 157.599858 180.01102 
L 156.143745 180.704035 
L 155.344198 181.333603 
L 155.198546 181.702325 
L 155.327833 181.900468 
L 155.770265 182.081163 
L 156.766569 182.217068 
L 159.697584 182.299356 
L 168.083081 182.209223 
L 188.609348 181.766129 
L 203.967959 181.249744 
L 203.967959 181.249744 
" style="fill:none;stroke:#000000;stroke-linecap:square;stroke-opacity:0.7;stroke-width:1.2;"/>
   </g>
   <g id="line2d_14">
    <path clip-path="url(#pf748698c32)" d="M 203.74894 162.244409 
L 198.999484 161.380086 
L 191.623178 160.128976 
L 185.922164 159.400288 
L 181.155195 159.005039 
L 176.810474 158.854011 
L 172.511624 158.919283 
L 167.664202 159.215184 
L 163.965944 159.619266 
L 160.820196 160.172204 
L 158.773894 160.71172 
L 156.750006 161.488634 
L 155.562892 162.201695 
L 155.179746 162.661273 
L 155.191929 162.906733 
L 155.443901 163.111151 
L 156.096969 163.294412 
L 157.801414 163.457856 
L 161.380342 163.510478 
L 168.138186 163.338223 
L 196.142117 162.419626 
L 204.016166 162.398641 
L 204.016166 162.398641 
" style="fill:none;stroke:#000000;stroke-linecap:square;stroke-opacity:0.7;stroke-width:1.2;"/>
   </g>
   <g id="line2d_15">
    <path clip-path="url(#pf748698c32)" d="M 203.781649 143.411761 
L 193.367124 141.596162 
L 187.160411 140.784634 
L 181.933471 140.324678 
L 177.352082 140.130794 
L 172.921215 140.158723 
L 168.252508 140.390173 
L 164.082055 140.781112 
L 161.051165 141.28141 
L 158.563599 141.94555 
L 156.621791 142.729032 
L 155.513573 143.411095 
L 155.189076 143.821029 
L 155.234364 144.059772 
L 155.556625 144.27331 
L 156.262978 144.467707 
L 157.934992 144.670388 
L 160.875439 144.760769 
L 164.897696 144.636012 
L 171.06661 144.183777 
L 181.432661 143.399565 
L 187.843083 143.139839 
L 194.546579 143.090456 
L 200.360166 143.273158 
L 204.126342 143.480528 
L 204.126342 143.480528 
" style="fill:none;stroke:#000000;stroke-linecap:square;stroke-opacity:0.7;stroke-width:1.2;"/>
   </g>
   <g id="line2d_16">
    <path clip-path="url(#pf748698c32)" d="M 267.196851 218.905753 
L 266.611267 218.847317 
L 263.739312 218.256408 
L 253.953576 216.02425 
L 249.755911 215.30244 
L 245.219108 214.748535 
L 241.311448 214.480308 
L 237.183853 214.404441 
L 233.06351 214.532855 
L 229.735967 214.81997 
L 226.570605 215.322584 
L 224.127682 215.942474 
L 222.183797 216.638098 
L 220.299087 217.554639 
L 219.05857 218.377001 
L 218.269872 219.170546 
L 218.172811 219.540421 
L 218.303642 219.698985 
L 218.800309 219.847592 
L 220.406742 219.941543 
L 252.30654 220.478528 
L 257.465268 220.220983 
L 262.327477 219.743881 
L 267.499019 218.97175 
L 267.499019 218.97175 
" style="fill:none;stroke:#000000;stroke-linecap:square;stroke-opacity:0.7;stroke-width:1.2;"/>
   </g>
   <g id="line2d_17">
    <path clip-path="url(#pf748698c32)" d="M 266.999434 200.037452 
L 265.281608 199.735132 
L 251.010177 196.757294 
L 246.640043 196.162328 
L 242.204413 195.791947 
L 238.01044 195.682 
L 233.944944 195.793272 
L 230.013498 196.109882 
L 226.886908 196.55332 
L 224.52873 197.057375 
L 222.040088 197.828977 
L 220.138177 198.676492 
L 218.914871 199.452635 
L 218.291589 200.058736 
L 218.102997 200.458311 
L 218.160959 200.724526 
L 218.42246 200.929409 
L 219.130539 201.124643 
L 220.829454 201.278072 
L 225.277725 201.380552 
L 241.047882 201.426613 
L 249.844169 201.286005 
L 256.880776 200.954898 
L 264.034861 200.395545 
L 267.264761 200.14394 
L 267.264761 200.14394 
" style="fill:none;stroke:#000000;stroke-linecap:square;stroke-opacity:0.7;stroke-width:1.2;"/>
   </g>
   <g id="line2d_18">
    <path clip-path="url(#pf748698c32)" d="M 266.923132 181.156524 
L 264.28311 180.637543 
L 254.003793 178.491667 
L 249.277838 177.740991 
L 244.4064 177.204302 
L 240.497341 176.983511 
L 236.43293 176.968524 
L 232.168242 177.172911 
L 228.534392 177.535807 
L 225.306016 178.073236 
L 222.976696 178.66908 
L 221.12839 179.33579 
L 219.436695 180.197085 
L 218.619252 180.800354 
L 218.184015 181.318674 
L 218.101728 181.676657 
L 218.256652 181.942962 
L 218.677847 182.167086 
L 219.574897 182.370597 
L 221.849046 182.571337 
L 226.512737 182.67912 
L 235.1123 182.605709 
L 247.208723 182.287508 
L 258.552831 181.739979 
L 267.198228 181.309386 
L 267.198228 181.309386 
" style="fill:none;stroke:#000000;stroke-linecap:square;stroke-opacity:0.7;stroke-width:1.2;"/>
   </g>
   <g id="line2d_19">
    <path clip-path="url(#pf748698c32)" d="M 266.921113 162.295546 
L 263.940959 161.690432 
L 255.900397 160.023657 
L 249.941999 159.043306 
L 245.239894 158.496361 
L 240.800616 158.209383 
L 236.679028 158.166299 
L 232.330432 158.338854 
L 228.561182 158.67823 
L 225.743611 159.107135 
L 223.306389 159.682933 
L 221.430664 160.326251 
L 219.66659 161.181494 
L 218.573357 161.966587 
L 218.126048 162.575728 
L 218.142287 162.909635 
L 218.40956 163.17342 
L 219.004035 163.412947 
L 220.553919 163.695684 
L 223.437643 163.91204 
L 227.640267 163.980566 
L 234.017644 163.83435 
L 245.781874 163.28692 
L 262.505911 162.54461 
L 267.242567 162.456324 
L 267.242567 162.456324 
" style="fill:none;stroke:#000000;stroke-linecap:square;stroke-opacity:0.7;stroke-width:1.2;"/>
   </g>
   <g id="line2d_20">
    <path clip-path="url(#pf748698c32)" d="M 266.965758 143.453983 
L 261.246886 142.247565 
L 254.565668 140.963404 
L 248.934772 140.121327 
L 244.166576 139.632623 
L 239.823012 139.407183 
L 235.3864 139.409316 
L 231.055441 139.607889 
L 227.460772 139.950984 
L 224.598684 140.440642 
L 222.786534 140.925185 
L 220.858234 141.67172 
L 219.295122 142.548281 
L 218.390142 143.32243 
L 218.16299 143.724969 
L 218.21565 144.070596 
L 218.556081 144.363017 
L 219.203617 144.626058 
L 220.758049 144.96335 
L 223.12881 145.217584 
L 226.197522 145.32285 
L 230.45765 145.21964 
L 235.90025 144.84546 
L 249.217552 143.845544 
L 256.338793 143.556888 
L 262.814082 143.495283 
L 267.331524 143.575866 
L 267.331524 143.575866 
" style="fill:none;stroke:#000000;stroke-linecap:square;stroke-opacity:0.7;stroke-width:1.2;"/>
   </g>
   <g id="line2d_21">
    <path clip-path="url(#pf748698c32)" d="M 330.447411 218.866533 
L 329.726436 218.76399 
L 326.687635 217.927732 
L 319.227946 215.77318 
L 314.848334 214.75012 
L 310.48451 213.975413 
L 306.588845 213.526151 
L 302.637551 213.322294 
L 298.82772 213.355389 
L 295.449083 213.579338 
L 292.619214 213.949799 
L 289.837201 214.545097 
L 287.421019 215.309136 
L 285.387729 216.175432 
L 283.591424 217.165951 
L 282.169222 218.195595 
L 281.385271 219.002834 
L 281.155316 219.476645 
L 281.215946 219.752204 
L 281.447115 219.929508 
L 282.093413 220.115025 
L 284.274917 220.352956 
L 291.287759 220.781179 
L 303.162642 221.264764 
L 309.87081 221.350611 
L 314.47272 221.217076 
L 319.175785 220.863122 
L 323.568379 220.295489 
L 327.870672 219.490079 
L 330.534829 219.01166 
L 330.534829 219.01166 
" style="fill:none;stroke:#000000;stroke-linecap:square;stroke-opacity:0.7;stroke-width:1.2;"/>
   </g>
   <g id="line2d_22">
    <path clip-path="url(#pf748698c32)" d="M 330.308152 200.038997 
L 329.596071 199.911155 
L 325.3981 198.799172 
L 319.016493 197.121734 
L 313.952835 196.029875 
L 309.548476 195.311905 
L 305.623705 194.892173 
L 302.251907 194.716085 
L 298.424527 194.721434 
L 294.517976 194.959414 
L 291.339785 195.384887 
L 288.573066 196.010273 
L 286.236717 196.792403 
L 284.081758 197.789183 
L 282.561395 198.737086 
L 281.768439 199.393971 
L 281.191003 200.120302 
L 281.089964 200.578788 
L 281.246458 200.885515 
L 281.617539 201.131481 
L 282.453574 201.393271 
L 284.206779 201.664865 
L 287.548684 201.925337 
L 293.210738 202.124479 
L 302.27717 202.208984 
L 309.712424 202.078538 
L 316.23322 201.718575 
L 322.226152 201.165762 
L 330.418718 200.201083 
L 330.418718 200.201083 
" style="fill:none;stroke:#000000;stroke-linecap:square;stroke-opacity:0.7;stroke-width:1.2;"/>
   </g>
   <g id="line2d_23">
    <path clip-path="url(#pf748698c32)" d="M 330.209096 181.203518 
L 328.20573 180.743394 
L 318.527271 178.31012 
L 313.1635 177.24562 
L 308.834693 176.607341 
L 305.065645 176.244945 
L 300.909743 176.07418 
L 296.743878 176.134319 
L 293.424248 176.361817 
L 290.636365 176.734391 
L 288.416252 177.213465 
L 286.129265 177.946265 
L 284.358528 178.73378 
L 282.815389 179.644843 
L 281.756257 180.499188 
L 281.223565 181.179235 
L 281.11809 181.65921 
L 281.296111 182.006552 
L 281.691341 182.279791 
L 282.496008 182.566735 
L 284.22338 182.891362 
L 287.077919 183.161351 
L 291.281528 183.322331 
L 297.673638 183.323593 
L 305.764135 183.109863 
L 313.869023 182.678815 
L 324.043884 181.892071 
L 330.409885 181.408252 
L 330.409885 181.408252 
" style="fill:none;stroke:#000000;stroke-linecap:square;stroke-opacity:0.7;stroke-width:1.2;"/>
   </g>
   <g id="line2d_24">
    <path clip-path="url(#pf748698c32)" d="M 330.155447 162.365595 
L 327.29868 161.687769 
L 318.743198 159.627615 
L 313.395379 158.593197 
L 308.702744 157.913769 
L 304.272878 157.511838 
L 300.089155 157.367434 
L 295.704305 157.447132 
L 292.2702 157.701821 
L 289.407849 158.130762 
L 287.353121 158.638219 
L 285.653347 159.238314 
L 283.931013 160.066984 
L 282.454543 161.032833 
L 281.509488 161.9183 
L 281.185585 162.478343 
L 281.208208 162.929049 
L 281.498275 163.2631 
L 282.04435 163.56204 
L 282.975963 163.866311 
L 284.786003 164.221652 
L 287.789833 164.532277 
L 291.411726 164.670309 
L 296.450321 164.616909 
L 303.318237 164.286918 
L 317.712521 163.282287 
L 328.427129 162.625959 
L 330.423231 162.557212 
L 330.423231 162.557212 
" style="fill:none;stroke:#000000;stroke-linecap:square;stroke-opacity:0.7;stroke-width:1.2;"/>
   </g>
   <g id="line2d_25">
    <path clip-path="url(#pf748698c32)" d="M 330.137775 143.534986 
L 325.892992 142.514562 
L 319.107833 140.95299 
L 313.268998 139.85971 
L 308.551427 139.200342 
L 304.148489 138.806544 
L 299.878987 138.650443 
L 295.246615 138.712586 
L 291.628594 138.962143 
L 288.889976 139.368313 
L 286.854869 139.884701 
L 285.013155 140.594517 
L 283.470544 141.438342 
L 282.118285 142.465304 
L 281.380664 143.31795 
L 281.215323 143.835797 
L 281.385111 144.270426 
L 281.818311 144.625563 
L 282.825461 145.07134 
L 284.528433 145.512917 
L 286.842364 145.853559 
L 289.920468 146.047116 
L 293.618068 146.028234 
L 298.590303 145.727529 
L 321.969728 143.879342 
L 329.023085 143.688574 
L 330.469205 143.667603 
L 330.469205 143.667603 
" style="fill:none;stroke:#000000;stroke-linecap:square;stroke-opacity:0.7;stroke-width:1.2;"/>
   </g>
  </g>
 </g>
 <defs>
  <clipPath id="pf748698c32">
   <rect height="329.04" width="329.04" x="15.48" y="15.48"/>
  </clipPath>
 </defs>
</svg>
