<?xml version="1.0" encoding="utf-8" standalone="no"?>
<!DOCTYPE svg PUBLIC "-//W3C//DTD SVG 1.1//EN"
  "http://www.w3.org/Graphics/SVG/1.1/DTD/svg11.dtd">
<!-- Created with matplotlib (http://matplotlib.org/) -->
<svg height="360pt" version="1.1" viewBox="0 0 360 360" width="360pt" xmlns="http://www.w3.org/2000/svg" xmlns:xlink="http://www.w3.org/1999/xlink">
 <defs>
  <style type="text/css">
*{stroke-linecap:butt;stroke-linejoin:round;}
  </style>
 </defs>
 <g id="figure_1">
  <g id="patch_1">
   <path d="M 0 360 
L 360 360 
L 360 0 
L 0 0 
z
" style="fill:#ffffff;"/>
  </g>
  <g id="axes_1">
   <g id="line2d_1">
    <path clip-path="url(#pf0e78c6035)" d="M 78.526263 216.357082 
L 76.478172 216.320279 
L 64.627999 215.958829 
L 56.368405 215.952651 
L 47.962103 216.169292 
L 41.561431 216.538039 
L 37.612205 216.983688 
L 33.707925 217.419871 
L 32.083043 217.302064 
L 30.066185 216.828833 
L 29.969432 216.779789 
L 30.145965 216.744435 
L 31.874193 216.791516 
L 46.684279 217.597791 
L 54.163795 217.699647 
L 62.756416 217.597747 
L 71.566194 217.286699 
L 76.920217 216.91865 
L 78.848879 216.62471 
L 78.848879 216.62471 
" style="fill:none;stroke:#000000;stroke-linecap:square;stroke-opacity:0.7;stroke-width:1.2;"/>
   </g>
   <g id="line2d_2">
    <path clip-path="url(#pf0e78c6035)" d="M 78.240592 197.500121 
L 75.957511 197.576196 
L 65.597284 197.564615 
L 48.955474 197.649623 
L 40.807646 197.845823 
L 36.894787 198.149324 
L 33.169987 198.44276 
L 31.623492 198.304328 
L 29.709894 197.955561 
L 30.667474 198.034524 
L 40.944603 198.537533 
L 48.484655 198.684721 
L 57.890403 198.632789 
L 68.871845 198.359525 
L 76.802552 197.981813 
L 78.764534 197.765455 
L 78.764534 197.765455 
" style="fill:none;stroke:#000000;stroke-linecap:square;stroke-opacity:0.7;stroke-width:1.2;"/>
   </g>
   <g id="line2d_3">
    <path clip-path="url(#pf0e78c6035)" d="M 78.023243 178.648868 
L 75.667612 178.807408 
L 68.939622 178.98497 
L 51.367393 179.181129 
L 36.469075 179.355407 
L 32.847834 179.518306 
L 31.323681 179.370977 
L 29.579223 179.111054 
L 31.364464 179.291337 
L 38.612587 179.566888 
L 47.481857 179.677063 
L 58.921459 179.569894 
L 73.589176 179.218832 
L 78.558791 178.937017 
L 78.69996 178.919828 
L 78.69996 178.919828 
" style="fill:none;stroke:#000000;stroke-linecap:square;stroke-opacity:0.7;stroke-width:1.2;"/>
   </g>
   <g id="line2d_4">
    <path clip-path="url(#pf0e78c6035)" d="M 77.929412 159.841086 
L 75.5781 160.066059 
L 70.200835 160.327328 
L 59.229652 160.596475 
L 47.167445 160.689613 
L 31.052406 160.528835 
L 29.515855 160.269569 
L 31.079065 160.475211 
L 37.033941 160.648958 
L 45.866893 160.689836 
L 62.468067 160.480791 
L 77.14017 160.154234 
L 78.644458 160.039462 
L 78.644458 160.039462 
" style="fill:none;stroke:#000000;stroke-linecap:square;stroke-opacity:0.7;stroke-width:1.2;"/>
   </g>
   <g id="line2d_5">
    <path clip-path="url(#pf0e78c6035)" d="M 77.976216 141.03961 
L 75.756143 141.307227 
L 70.744808 141.641717 
L 61.676642 141.977585 
L 50.496271 142.166329 
L 41.72571 142.099339 
L 31.17025 141.780868 
L 29.465171 141.441289 
L 31.24703 141.727139 
L 35.815822 141.808296 
L 44.289083 141.7291 
L 78.64489 141.155046 
L 78.64489 141.155046 
" style="fill:none;stroke:#000000;stroke-linecap:square;stroke-opacity:0.7;stroke-width:1.2;"/>
   </g>
   <g id="line2d_6">
    <path clip-path="url(#pf0e78c6035)" d="M 141.466037 216.419749 
L 139.511246 216.212325 
L 132.760212 215.402937 
L 127.679197 215.022593 
L 122.48815 214.84733 
L 116.987312 214.893802 
L 110.895247 215.193124 
L 104.766623 215.694815 
L 99.642424 216.352041 
L 96.629926 216.644223 
L 92.434985 216.818997 
L 92.441468 216.838845 
L 92.689144 216.987566 
L 93.726851 217.197084 
L 97.854251 217.63242 
L 104.803941 218.138543 
L 111.938469 218.424964 
L 118.737181 218.463923 
L 124.984827 218.303321 
L 132.170493 217.889748 
L 137.518967 217.367955 
L 140.487142 216.909554 
L 141.714284 216.675928 
L 141.714284 216.675928 
" style="fill:none;stroke:#000000;stroke-linecap:square;stroke-opacity:0.7;stroke-width:1.2;"/>
   </g>
   <g id="line2d_7">
    <path clip-path="url(#pf0e78c6035)" d="M 141.16464 197.531539 
L 138.847785 197.434027 
L 126.086821 196.727557 
L 118.656717 196.555738 
L 111.014073 196.603127 
L 104.866702 196.856724 
L 100.69308 197.238045 
L 96.135456 197.704086 
L 92.304496 197.882616 
L 92.387858 198.031867 
L 92.664466 198.170686 
L 93.706899 198.408186 
L 96.481009 198.730097 
L 101.701111 199.114639 
L 108.5395 199.390325 
L 115.579739 199.442872 
L 123.507857 199.256243 
L 131.210912 198.866155 
L 137.61505 198.352907 
L 141.64238 197.833358 
L 141.64238 197.833358 
" style="fill:none;stroke:#000000;stroke-linecap:square;stroke-opacity:0.7;stroke-width:1.2;"/>
   </g>
   <g id="line2d_8">
    <path clip-path="url(#pf0e78c6035)" d="M 140.849398 178.672721 
L 138.259866 178.68987 
L 126.659391 178.391333 
L 112.373146 178.150103 
L 104.4589 178.188781 
L 100.339761 178.413076 
L 94.436652 178.811527 
L 92.430034 178.843169 
L 92.190456 179.01746 
L 92.234048 179.122892 
L 92.671148 179.361099 
L 93.728141 179.603067 
L 96.549539 179.935995 
L 101.644252 180.279854 
L 108.175521 180.471699 
L 114.934214 180.455489 
L 124.203134 180.188255 
L 133.584168 179.703046 
L 140.136646 179.163484 
L 141.586944 178.984825 
L 141.586944 178.984825 
" style="fill:none;stroke:#000000;stroke-linecap:square;stroke-opacity:0.7;stroke-width:1.2;"/>
   </g>
   <g id="line2d_9">
    <path clip-path="url(#pf0e78c6035)" d="M 140.643784 159.849396 
L 137.898689 159.959591 
L 130.725437 159.976226 
L 108.172974 159.735102 
L 100.507093 159.734612 
L 92.139793 160.140563 
L 92.200779 160.30672 
L 92.741567 160.58542 
L 94.199493 160.89223 
L 97.188418 161.21423 
L 101.633376 161.482384 
L 107.473215 161.61373 
L 114.410291 161.545478 
L 124.555031 161.208796 
L 135.843722 160.625632 
L 141.541648 160.147346 
L 141.541648 160.147346 
" style="fill:none;stroke:#000000;stroke-linecap:square;stroke-opacity:0.7;stroke-width:1.2;"/>
   </g>
   <g id="line2d_10">
    <path clip-path="url(#pf0e78c6035)" d="M 140.590201 141.06292 
L 137.890898 141.252036 
L 131.511122 141.421054 
L 118.799377 141.496337 
L 106.539307 141.37289 
L 97.267797 141.253206 
L 93.917633 141.219886 
L 92.220627 141.182018 
L 92.053255 141.32937 
L 92.161749 141.532415 
L 92.516236 141.751618 
L 93.511417 142.050427 
L 95.80504 142.374679 
L 99.822029 142.654763 
L 104.827049 142.778426 
L 111.543879 142.697728 
L 123.616609 142.275518 
L 138.871055 141.532695 
L 141.574441 141.302617 
L 141.574441 141.302617 
" style="fill:none;stroke:#000000;stroke-linecap:square;stroke-opacity:0.7;stroke-width:1.2;"/>
   </g>
   <g id="line2d_11">
    <path clip-path="url(#pf0e78c6035)" d="M 204.401592 216.36604 
L 203.369676 216.236021 
L 193.337449 214.492616 
L 189.503256 214.171099 
L 185.64041 214.048108 
L 181.640774 214.120694 
L 176.248735 214.461091 
L 166.787829 215.308451 
L 157.955743 216.196177 
L 155.862973 216.423528 
L 155.251209 216.685762 
L 155.255176 216.887791 
L 155.473989 217.051654 
L 156.38982 217.335994 
L 158.67649 217.682293 
L 165.103864 218.342833 
L 171.508316 218.807651 
L 177.34548 219.029392 
L 182.72139 219.025179 
L 188.580679 218.78318 
L 194.09666 218.321326 
L 199.202232 217.644309 
L 202.960117 216.912435 
L 204.54259 216.621168 
L 204.54259 216.621168 
" style="fill:none;stroke:#000000;stroke-linecap:square;stroke-opacity:0.7;stroke-width:1.2;"/>
   </g>
   <g id="line2d_12">
    <path clip-path="url(#pf0e78c6035)" d="M 204.187373 197.551126 
L 202.850844 197.436629 
L 191.508843 196.068343 
L 186.38489 195.755415 
L 181.33208 195.667052 
L 175.687602 195.814368 
L 168.973513 196.217234 
L 163.246643 196.772698 
L 158.37051 197.212202 
L 155.923047 197.45903 
L 155.309301 197.709229 
L 155.217988 197.910407 
L 155.305399 198.074731 
L 155.808505 198.368378 
L 156.938141 198.670828 
L 159.881552 199.099189 
L 165.127537 199.620503 
L 171.117395 200.008833 
L 176.189133 200.152858 
L 181.482633 200.103705 
L 187.444048 199.819188 
L 193.4631 199.309374 
L 199.40291 198.572927 
L 204.437459 197.796832 
L 204.437459 197.796832 
" style="fill:none;stroke:#000000;stroke-linecap:square;stroke-opacity:0.7;stroke-width:1.2;"/>
   </g>
   <g id="line2d_13">
    <path clip-path="url(#pf0e78c6035)" d="M 203.933602 178.687865 
L 201.553013 178.570491 
L 185.529119 177.484828 
L 178.531048 177.302593 
L 171.836018 177.355211 
L 166.543464 177.58531 
L 161.560208 178.034048 
L 155.397703 178.780128 
L 155.225443 179.00054 
L 155.27108 179.19939 
L 155.611656 179.481078 
L 156.521434 179.810415 
L 158.560035 180.186041 
L 162.891482 180.670839 
L 168.156966 181.050874 
L 174.05985 181.242985 
L 179.483458 181.195124 
L 185.364967 180.931954 
L 192.329702 180.397563 
L 199.232661 179.649781 
L 204.388567 178.97116 
L 204.388567 178.97116 
" style="fill:none;stroke:#000000;stroke-linecap:square;stroke-opacity:0.7;stroke-width:1.2;"/>
   </g>
   <g id="line2d_14">
    <path clip-path="url(#pf0e78c6035)" d="M 203.680223 159.868212 
L 200.850791 159.847529 
L 191.055801 159.413503 
L 178.661526 158.962282 
L 170.208711 158.861044 
L 164.957716 158.989107 
L 160.580378 159.324241 
L 155.450768 159.868294 
L 155.185863 160.111452 
L 155.189225 160.321902 
L 155.473428 160.637365 
L 155.950153 160.883956 
L 157.001198 161.191132 
L 159.421871 161.583936 
L 163.927142 162.026445 
L 169.039473 162.307418 
L 174.095228 162.380065 
L 179.715231 162.246542 
L 186.759167 161.85382 
L 195.684319 161.113289 
L 203.687427 160.218706 
L 204.383981 160.143917 
L 204.383981 160.143917 
" style="fill:none;stroke:#000000;stroke-linecap:square;stroke-opacity:0.7;stroke-width:1.2;"/>
   </g>
   <g id="line2d_15">
    <path clip-path="url(#pf0e78c6035)" d="M 203.523771 141.048296 
L 200.577441 141.118925 
L 192.810736 140.995108 
L 165.405408 140.470099 
L 160.783201 140.591147 
L 155.458078 140.986534 
L 155.115344 141.246982 
L 155.119259 141.543268 
L 155.250712 141.738266 
L 155.670872 142.053393 
L 156.665837 142.435706 
L 158.556266 142.813725 
L 162.010579 143.208075 
L 166.701434 143.501851 
L 171.677674 143.582295 
L 177.777997 143.421111 
L 185.999985 142.94834 
L 197.169626 142.068503 
L 204.452295 141.336791 
L 204.452295 141.336791 
" style="fill:none;stroke:#000000;stroke-linecap:square;stroke-opacity:0.7;stroke-width:1.2;"/>
   </g>
   <g id="line2d_16">
    <path clip-path="url(#pf0e78c6035)" d="M 267.401166 216.305772 
L 266.953573 216.268452 
L 264.358612 215.573534 
L 260.683791 214.59397 
L 257.29003 213.93147 
L 253.772092 213.491664 
L 250.584156 213.299327 
L 246.960283 213.303103 
L 242.901852 213.535062 
L 232.072819 214.500305 
L 224.571582 215.370249 
L 219.302509 216.115278 
L 218.390458 216.417066 
L 218.096013 216.721775 
L 218.136759 216.906458 
L 218.485186 217.193053 
L 219.435867 217.543923 
L 221.669246 217.996033 
L 226.975626 218.74309 
L 232.980824 219.37451 
L 237.903562 219.695049 
L 242.907241 219.799567 
L 247.658879 219.675482 
L 252.041978 219.365816 
L 256.123485 218.9024 
L 260.671506 218.157594 
L 264.729998 217.231044 
L 267.350274 216.632844 
L 267.490334 216.628448 
L 267.490334 216.628448 
" style="fill:none;stroke:#000000;stroke-linecap:square;stroke-opacity:0.7;stroke-width:1.2;"/>
   </g>
   <g id="line2d_17">
    <path clip-path="url(#pf0e78c6035)" d="M 267.194574 197.511254 
L 266.737684 197.480093 
L 263.811223 196.951285 
L 258.744949 196.002479 
L 254.880901 195.477564 
L 250.8434 195.134269 
L 246.538746 195.001011 
L 242.071478 195.101097 
L 235.090661 195.54627 
L 227.973483 196.177039 
L 219.792259 197.152159 
L 218.637076 197.451487 
L 218.211905 197.778344 
L 218.199559 198.00751 
L 218.375325 198.255907 
L 218.962546 198.61457 
L 220.068168 198.982329 
L 222.555397 199.476465 
L 227.178887 200.119216 
L 232.931704 200.692691 
L 237.651925 200.956448 
L 242.438017 200.994951 
L 247.243062 200.793155 
L 252.279456 200.339949 
L 257.548099 199.617168 
L 262.876877 198.62421 
L 267.198857 197.799739 
L 267.379051 197.796336 
L 267.379051 197.796336 
" style="fill:none;stroke:#000000;stroke-linecap:square;stroke-opacity:0.7;stroke-width:1.2;"/>
   </g>
   <g id="line2d_18">
    <path clip-path="url(#pf0e78c6035)" d="M 267.000489 178.738286 
L 265.300222 178.595256 
L 252.669255 177.089137 
L 247.558286 176.76747 
L 242.247605 176.657579 
L 236.324534 176.789589 
L 229.712114 177.154819 
L 224.517619 177.658991 
L 219.408708 178.330325 
L 218.502621 178.639655 
L 218.208561 178.976798 
L 218.250527 179.254086 
L 218.58388 179.612714 
L 219.371343 180.0177 
L 220.900311 180.45211 
L 223.992004 180.987642 
L 228.828819 181.577397 
L 233.831113 181.98255 
L 238.626739 182.145108 
L 243.150192 182.070051 
L 248.123744 181.747434 
L 253.77104 181.125966 
L 260.055536 180.169173 
L 267.312242 178.979292 
L 267.312242 178.979292 
" style="fill:none;stroke:#000000;stroke-linecap:square;stroke-opacity:0.7;stroke-width:1.2;"/>
   </g>
   <g id="line2d_19">
    <path clip-path="url(#pf0e78c6035)" d="M 266.817473 159.921154 
L 265.06892 159.851223 
L 255.877358 159.071379 
L 248.014456 158.545511 
L 240.985162 158.293503 
L 234.260537 158.289516 
L 228.385008 158.493194 
L 224.106721 158.845464 
L 219.683732 159.406089 
L 218.59848 159.717392 
L 218.195391 160.071641 
L 218.17187 160.353338 
L 218.384413 160.709315 
L 218.789918 161.025618 
L 219.726362 161.441051 
L 221.316277 161.853337 
L 223.953725 162.30296 
L 228.633585 162.858672 
L 233.550493 163.207869 
L 237.768666 163.300318 
L 241.923591 163.199627 
L 246.809619 162.874302 
L 253.097045 162.211373 
L 259.919022 161.266929 
L 267.326341 160.178554 
L 267.326341 160.178554 
" style="fill:none;stroke:#000000;stroke-linecap:square;stroke-opacity:0.7;stroke-width:1.2;"/>
   </g>
   <g id="line2d_20">
    <path clip-path="url(#pf0e78c6035)" d="M 266.647392 141.081083 
L 264.908503 141.084926 
L 259.229105 140.811112 
L 244.367137 140.043515 
L 235.962248 139.838386 
L 228.530861 139.885146 
L 223.707322 140.137445 
L 219.843089 140.560464 
L 218.709452 140.831002 
L 218.228408 141.12381 
L 218.077434 141.484575 
L 218.213026 141.892694 
L 218.575851 142.274344 
L 219.42696 142.746166 
L 220.761306 143.159429 
L 223.316044 143.635789 
L 227.399012 144.120555 
L 231.790063 144.412897 
L 236.274508 144.475433 
L 241.107672 144.298797 
L 246.520743 143.884806 
L 253.324886 143.165434 
L 264.653277 141.701266 
L 267.379078 141.371639 
L 267.379078 141.371639 
" style="fill:none;stroke:#000000;stroke-linecap:square;stroke-opacity:0.7;stroke-width:1.2;"/>
   </g>
   <g id="line2d_21">
    <path clip-path="url(#pf0e78c6035)" d="M 330.42181 216.293612 
L 330.143634 216.284566 
L 329.781738 216.209649 
L 322.747424 213.833886 
L 319.718498 213.154616 
L 316.422856 212.671616 
L 313.246394 212.443666 
L 310.063681 212.42869 
L 305.605448 212.668453 
L 296.73403 213.432183 
L 291.704798 214.035655 
L 286.701062 214.854778 
L 283.380147 215.586723 
L 281.801745 216.13282 
L 281.242282 216.552229 
L 281.180823 216.858066 
L 281.379803 217.164948 
L 281.736876 217.423139 
L 282.692849 217.84289 
L 284.839824 218.439469 
L 288.763665 219.242676 
L 293.652965 220.018459 
L 297.96621 220.491854 
L 302.308499 220.74882 
L 306.046518 220.785514 
L 310.182036 220.628014 
L 314.033062 220.296923 
L 318.335023 219.712072 
L 322.469146 218.912539 
L 325.707145 218.08706 
L 330.534829 216.71787 
L 330.534829 216.71787 
" style="fill:none;stroke:#000000;stroke-linecap:square;stroke-opacity:0.7;stroke-width:1.2;"/>
   </g>
   <g id="line2d_22">
    <path clip-path="url(#pf0e78c6035)" d="M 330.24179 197.459721 
L 329.605087 197.408032 
L 326.228579 196.549285 
L 322.368993 195.584008 
L 319.032792 194.940072 
L 315.040083 194.418373 
L 311.400354 194.180884 
L 307.46609 194.170195 
L 302.451791 194.427865 
L 293.84139 195.123734 
L 288.644213 195.771255 
L 284.219032 196.554414 
L 282.348175 197.054334 
L 281.542131 197.443455 
L 281.258535 197.791148 
L 281.28452 198.129539 
L 281.570621 198.490474 
L 282.212294 198.907826 
L 283.246648 199.331272 
L 285.310104 199.896866 
L 289.046971 200.640469 
L 294.136794 201.400097 
L 298.409906 201.818756 
L 302.060373 201.993345 
L 305.999531 201.978455 
L 310.437085 201.712272 
L 314.420979 201.260912 
L 319.111546 200.485207 
L 323.356361 199.557935 
L 330.433125 197.874893 
L 330.433125 197.874893 
" style="fill:none;stroke:#000000;stroke-linecap:square;stroke-opacity:0.7;stroke-width:1.2;"/>
   </g>
   <g id="line2d_23">
    <path clip-path="url(#pf0e78c6035)" d="M 330.095342 178.736205 
L 329.483385 178.70213 
L 326.150767 178.12597 
L 319.951278 176.99175 
L 315.462763 176.388351 
L 310.931207 176.004815 
L 306.519019 175.86754 
L 302.049743 175.954886 
L 295.237496 176.336674 
L 290.059567 176.805564 
L 285.642886 177.431063 
L 283.102087 177.955541 
L 281.898018 178.368107 
L 281.435936 178.678968 
L 281.254807 179.046252 
L 281.365367 179.438486 
L 281.830603 179.916745 
L 282.634836 180.377719 
L 284.115583 180.91097 
L 286.553918 181.504697 
L 290.435951 182.207142 
L 295.074626 182.814313 
L 298.866237 183.115486 
L 302.559373 183.216653 
L 306.569224 183.102154 
L 311.059989 182.712999 
L 315.236001 182.133274 
L 319.79574 181.293488 
L 325.705195 179.948826 
L 329.672948 179.099516 
L 330.369418 179.048859 
L 330.369418 179.048859 
" style="fill:none;stroke:#000000;stroke-linecap:square;stroke-opacity:0.7;stroke-width:1.2;"/>
   </g>
   <g id="line2d_24">
    <path clip-path="url(#pf0e78c6035)" d="M 329.944939 159.986089 
L 329.342246 159.969421 
L 325.642507 159.563638 
L 315.857286 158.373539 
L 309.532268 157.856081 
L 304.230185 157.629665 
L 298.39044 157.621916 
L 292.155861 157.845884 
L 288.116402 158.193672 
L 284.484521 158.748767 
L 282.602158 159.2067 
L 281.635415 159.632253 
L 281.290673 159.985056 
L 281.223181 160.347127 
L 281.45697 160.852892 
L 282.063123 161.390056 
L 282.990562 161.87661 
L 284.533934 162.403178 
L 287.145234 163.017847 
L 290.89118 163.660145 
L 295.020455 164.14607 
L 298.84372 164.384649 
L 302.485816 164.407646 
L 306.426994 164.211664 
L 310.829425 163.755892 
L 315.937429 162.97938 
L 322.066075 161.795247 
L 329.547104 160.311166 
L 330.338683 160.245406 
L 330.338683 160.245406 
" style="fill:none;stroke:#000000;stroke-linecap:square;stroke-opacity:0.7;stroke-width:1.2;"/>
   </g>
   <g id="line2d_25">
    <path clip-path="url(#pf0e78c6035)" d="M 329.813598 141.165541 
L 328.076985 141.121183 
L 323.366489 140.729794 
L 311.724056 139.75695 
L 303.986764 139.346362 
L 297.020462 139.209768 
L 290.417831 139.290275 
L 286.624846 139.564337 
L 284.223502 139.929552 
L 282.413126 140.388366 
L 281.483311 140.842714 
L 281.17274 141.216045 
L 281.120213 141.602615 
L 281.248286 141.98425 
L 281.537481 142.384813 
L 282.406904 143.058191 
L 283.692438 143.635651 
L 285.599032 144.18696 
L 288.709023 144.79889 
L 292.494129 145.293486 
L 296.489023 145.569748 
L 300.079121 145.603428 
L 304.273311 145.400992 
L 308.541509 144.975795 
L 314.08998 144.189396 
L 321.739905 142.851567 
L 329.465045 141.527589 
L 330.360519 141.437706 
L 330.360519 141.437706 
" style="fill:none;stroke:#000000;stroke-linecap:square;stroke-opacity:0.7;stroke-width:1.2;"/>
   </g>
  </g>
 </g>
 <defs>
  <clipPath id="pf0e78c6035">
   <rect height="329.04" width="329.04" x="15.48" y="15.48"/>
  </clipPath>
 </defs>
</svg>
