<?xml version="1.0" encoding="utf-8" standalone="no"?>
<!DOCTYPE svg PUBLIC "-//W3C//DTD SVG 1.1//EN"
  "http://www.w3.org/Graphics/SVG/1.1/DTD/svg11.dtd">
<!-- Created with matplotlib (http://matplotlib.org/) -->
<svg height="360pt" version="1.1" viewBox="0 0 360 360" width="360pt" xmlns="http://www.w3.org/2000/svg" xmlns:xlink="http://www.w3.org/1999/xlink">
 <defs>
  <style type="text/css">
*{stroke-linecap:butt;stroke-linejoin:round;}
  </style>
 </defs>
 <g id="figure_1">
  <g id="patch_1">
   <path d="M 0 360 
L 360 360 
L 360 0 
L 0 0 
z
" style="fill:#ffffff;"/>
  </g>
  <g id="axes_1">
   <g id="line2d_1">
    <path clip-path="url(#p52bd249a16)" d="M 78.469135 218.192684 
L 75.579799 217.930295 
L 65.62093 216.959434 
L 59.459199 216.579433 
L 52.941675 216.409513 
L 47.331272 216.493295 
L 42.045674 216.794014 
L 37.337606 217.28153 
L 31.958029 218.072956 
L 29.893549 218.506707 
L 32.036773 218.141233 
L 36.12506 218.095151 
L 52.661884 218.300151 
L 72.214665 218.463891 
L 77.375629 218.329936 
L 78.806934 218.177303 
L 78.806934 218.177303 
" style="fill:none;stroke:#000000;stroke-linecap:square;stroke-opacity:0.7;stroke-width:1.2;"/>
   </g>
   <g id="line2d_2">
    <path clip-path="url(#p52bd249a16)" d="M 78.176604 199.323987 
L 74.848049 199.09329 
L 62.665185 198.192477 
L 55.018914 197.877535 
L 48.913333 197.830267 
L 43.441386 197.999081 
L 38.500673 198.36897 
L 32.185356 199.106391 
L 29.990976 199.548354 
L 29.518389 199.733525 
L 29.695983 199.732616 
L 34.858663 199.465915 
L 43.342393 199.257222 
L 52.976465 199.254454 
L 77.931913 199.382023 
L 78.533078 199.337902 
L 78.533078 199.337902 
" style="fill:none;stroke:#000000;stroke-linecap:square;stroke-opacity:0.7;stroke-width:1.2;"/>
   </g>
   <g id="line2d_3">
    <path clip-path="url(#p52bd249a16)" d="M 77.732592 180.453632 
L 73.286707 180.241767 
L 58.742825 179.494474 
L 50.085724 179.290481 
L 43.520115 179.358688 
L 38.779969 179.604611 
L 33.314138 180.120897 
L 30.345615 180.56763 
L 29.489285 180.874314 
L 29.607359 180.914689 
L 30.765847 180.908616 
L 49.002802 180.215759 
L 59.154068 180.275548 
L 78.285435 180.459949 
L 78.285435 180.459949 
" style="fill:none;stroke:#000000;stroke-linecap:square;stroke-opacity:0.7;stroke-width:1.2;"/>
   </g>
   <g id="line2d_4">
    <path clip-path="url(#p52bd249a16)" d="M 77.280583 161.547985 
L 71.903967 161.412769 
L 54.016688 160.89351 
L 44.254207 160.834316 
L 38.036561 160.999549 
L 32.90947 161.389439 
L 30.224406 161.767829 
L 29.465256 161.997516 
L 29.498498 162.023725 
L 29.989552 162.068865 
L 32.367373 161.971628 
L 45.754336 161.125302 
L 51.985837 161.033731 
L 62.059955 161.130845 
L 74.283172 161.477957 
L 78.171253 161.593846 
L 78.171253 161.593846 
" style="fill:none;stroke:#000000;stroke-linecap:square;stroke-opacity:0.7;stroke-width:1.2;"/>
   </g>
   <g id="line2d_5">
    <path clip-path="url(#p52bd249a16)" d="M 77.151886 142.705286 
L 71.840869 142.693898 
L 42.148504 142.414369 
L 35.641383 142.49019 
L 31.758355 142.754365 
L 29.467522 143.117957 
L 29.538102 143.163196 
L 30.148803 143.22864 
L 32.133166 143.164657 
L 36.795686 142.701428 
L 44.267021 142.001976 
L 49.368167 141.741823 
L 55.38612 141.634071 
L 63.704165 141.726083 
L 71.226016 142.026827 
L 78.205171 142.501518 
L 78.205171 142.501518 
" style="fill:none;stroke:#000000;stroke-linecap:square;stroke-opacity:0.7;stroke-width:1.2;"/>
   </g>
   <g id="line2d_6">
    <path clip-path="url(#p52bd249a16)" d="M 141.298498 218.127713 
L 140.226847 218.036889 
L 135.354727 217.303191 
L 129.143898 216.444514 
L 124.030605 215.959441 
L 119.167622 215.717511 
L 114.098357 215.71129 
L 108.285477 215.964672 
L 101.949043 216.459323 
L 97.327928 217.031315 
L 94.890809 217.525967 
L 93.308879 218.042191 
L 92.458395 218.521269 
L 92.398675 218.741335 
L 92.738111 218.832308 
L 94.592306 218.86226 
L 104.318049 218.958455 
L 124.646661 219.179451 
L 132.390485 219.003198 
L 137.867816 218.679664 
L 141.634972 218.264671 
L 141.634972 218.264671 
" style="fill:none;stroke:#000000;stroke-linecap:square;stroke-opacity:0.7;stroke-width:1.2;"/>
   </g>
   <g id="line2d_7">
    <path clip-path="url(#p52bd249a16)" d="M 141.007713 199.265033 
L 138.847019 199.042019 
L 126.222896 197.490298 
L 120.6928 197.113119 
L 115.74265 196.998465 
L 110.807304 197.111345 
L 104.613367 197.498147 
L 98.296887 198.105876 
L 95.607291 198.515024 
L 93.777784 198.983492 
L 92.69294 199.470443 
L 92.398946 199.810093 
L 92.528146 199.974527 
L 93.121959 200.110648 
L 95.243273 200.202209 
L 104.243002 200.219921 
L 126.51731 200.096444 
L 135.207187 199.782964 
L 141.244519 199.426523 
L 141.244519 199.426523 
" style="fill:none;stroke:#000000;stroke-linecap:square;stroke-opacity:0.7;stroke-width:1.2;"/>
   </g>
   <g id="line2d_8">
    <path clip-path="url(#p52bd249a16)" d="M 140.691048 180.406874 
L 137.414529 180.063819 
L 127.056044 178.941679 
L 121.356077 178.541066 
L 115.744009 178.364066 
L 110.319655 178.436419 
L 104.543891 178.741204 
L 98.245835 179.294713 
L 95.142323 179.758767 
L 93.504436 180.205657 
L 92.580559 180.668875 
L 92.399336 180.941743 
L 92.492634 181.087759 
L 92.976171 181.252813 
L 94.423765 181.393828 
L 98.412442 181.474013 
L 107.731626 181.388012 
L 129.457332 180.985219 
L 141.052982 180.578214 
L 141.052982 180.578214 
" style="fill:none;stroke:#000000;stroke-linecap:square;stroke-opacity:0.7;stroke-width:1.2;"/>
   </g>
   <g id="line2d_9">
    <path clip-path="url(#p52bd249a16)" d="M 140.464597 161.560777 
L 135.005842 161.091487 
L 125.019308 160.283079 
L 118.084843 159.930677 
L 111.920096 159.833061 
L 105.979285 159.969562 
L 100.703133 160.287509 
L 96.240653 160.770969 
L 94.027545 161.207731 
L 92.78682 161.643033 
L 92.357649 161.964586 
L 92.385111 162.151445 
L 92.768211 162.322478 
L 94.131716 162.510108 
L 96.969907 162.623797 
L 102.099425 162.577136 
L 138.206212 161.743926 
L 141.099825 161.714762 
L 141.099825 161.714762 
" style="fill:none;stroke:#000000;stroke-linecap:square;stroke-opacity:0.7;stroke-width:1.2;"/>
   </g>
   <g id="line2d_10">
    <path clip-path="url(#p52bd249a16)" d="M 140.315185 142.724945 
L 134.084769 142.34439 
L 122.146239 141.655016 
L 113.771771 141.393111 
L 106.773239 141.395298 
L 100.250726 141.604295 
L 96.670337 141.915159 
L 94.411866 142.292816 
L 92.82806 142.762886 
L 92.299425 143.121619 
L 92.384912 143.298504 
L 92.884919 143.480636 
L 94.297687 143.688251 
L 97.090858 143.821537 
L 100.999893 143.747524 
L 107.830645 143.331921 
L 116.372977 142.881451 
L 125.419965 142.651414 
L 134.59495 142.640408 
L 141.18973 142.80635 
L 141.18973 142.80635 
" style="fill:none;stroke:#000000;stroke-linecap:square;stroke-opacity:0.7;stroke-width:1.2;"/>
   </g>
   <g id="line2d_11">
    <path clip-path="url(#p52bd249a16)" d="M 204.133551 218.117153 
L 202.842822 218.004154 
L 199.113325 217.307041 
L 193.690297 216.282499 
L 188.947408 215.606174 
L 184.457139 215.206114 
L 180.328524 215.061948 
L 175.920597 215.127789 
L 169.693371 215.466823 
L 164.416994 215.960991 
L 160.859097 216.475552 
L 158.292657 217.051494 
L 156.591673 217.63842 
L 155.534631 218.228153 
L 155.23442 218.594524 
L 155.279513 218.793889 
L 155.554503 218.942843 
L 156.478927 219.080915 
L 160.0709 219.205441 
L 185.203763 219.7497 
L 191.637825 219.559977 
L 197.320884 219.162834 
L 202.228422 218.581532 
L 204.492548 218.300838 
L 204.492548 218.300838 
" style="fill:none;stroke:#000000;stroke-linecap:square;stroke-opacity:0.7;stroke-width:1.2;"/>
   </g>
   <g id="line2d_12">
    <path clip-path="url(#p52bd249a16)" d="M 203.886353 199.24528 
L 202.57845 199.115168 
L 197.719025 198.303338 
L 191.220833 197.286595 
L 186.223733 196.738801 
L 181.372088 196.455373 
L 176.965222 196.431115 
L 171.807697 196.637535 
L 165.432084 197.122051 
L 161.129711 197.636056 
L 158.511476 198.153828 
L 156.774147 198.706771 
L 155.654105 199.306282 
L 155.321211 199.700606 
L 155.367817 199.954661 
L 155.680634 200.14136 
L 156.574771 200.318645 
L 159.284459 200.485059 
L 167.130005 200.645532 
L 180.253697 200.701719 
L 188.044123 200.493663 
L 195.436683 200.06739 
L 204.069977 199.437116 
L 204.069977 199.437116 
" style="fill:none;stroke:#000000;stroke-linecap:square;stroke-opacity:0.7;stroke-width:1.2;"/>
   </g>
   <g id="line2d_13">
    <path clip-path="url(#p52bd249a16)" d="M 203.75866 180.381786 
L 201.294173 180.067954 
L 189.646019 178.378416 
L 184.271046 177.894485 
L 179.782565 177.701851 
L 174.962106 177.731396 
L 169.187779 178.017425 
L 163.292048 178.52714 
L 160.13906 178.963546 
L 157.658301 179.540035 
L 156.161705 180.12989 
L 155.44286 180.652675 
L 155.329069 180.975915 
L 155.480798 181.177165 
L 155.996172 181.379352 
L 157.453875 181.585418 
L 160.877974 181.763974 
L 167.259229 181.858901 
L 177.667109 181.77452 
L 186.395134 181.496316 
L 196.922027 180.925637 
L 203.947108 180.577358 
L 203.947108 180.577358 
" style="fill:none;stroke:#000000;stroke-linecap:square;stroke-opacity:0.7;stroke-width:1.2;"/>
   </g>
   <g id="line2d_14">
    <path clip-path="url(#p52bd249a16)" d="M 203.770559 161.529402 
L 200.362539 161.079676 
L 191.490993 159.886346 
L 186.061657 159.367878 
L 180.74884 159.078074 
L 175.769252 159.035787 
L 170.273518 159.220077 
L 164.301653 159.636939 
L 160.631159 160.073461 
L 157.984758 160.610766 
L 156.43982 161.130987 
L 155.47795 161.695732 
L 155.270122 162.038842 
L 155.360952 162.248393 
L 155.7947 162.475436 
L 156.72932 162.680233 
L 158.992916 162.912717 
L 163.109009 163.083855 
L 168.590762 163.090762 
L 178.379783 162.834545 
L 192.902606 162.209927 
L 204.11443 161.755594 
L 204.11443 161.755594 
" style="fill:none;stroke:#000000;stroke-linecap:square;stroke-opacity:0.7;stroke-width:1.2;"/>
   </g>
   <g id="line2d_15">
    <path clip-path="url(#p52bd249a16)" d="M 203.717006 142.72285 
L 198.153481 142.060136 
L 189.815852 141.162269 
L 183.486064 140.706773 
L 177.752551 140.519326 
L 172.036597 140.574876 
L 164.912319 140.88783 
L 160.666854 141.295533 
L 158.137088 141.763835 
L 156.602416 142.235251 
L 155.546413 142.777336 
L 155.265215 143.113771 
L 155.313736 143.341639 
L 155.680114 143.578326 
L 156.479048 143.811118 
L 158.608594 144.134234 
L 161.602122 144.348799 
L 165.675897 144.393623 
L 170.942126 144.205139 
L 193.895524 143.135475 
L 203.194149 142.938231 
L 204.266823 142.920504 
L 204.266823 142.920504 
" style="fill:none;stroke:#000000;stroke-linecap:square;stroke-opacity:0.7;stroke-width:1.2;"/>
   </g>
   <g id="line2d_16">
    <path clip-path="url(#p52bd249a16)" d="M 267.164359 218.12885 
L 266.622041 218.108687 
L 264.448011 217.702005 
L 254.621454 215.440333 
L 250.725067 214.837821 
L 246.870131 214.459634 
L 242.923201 214.302925 
L 238.689198 214.35941 
L 233.526466 214.648584 
L 228.677147 215.138024 
L 224.943044 215.731645 
L 222.380663 216.340337 
L 220.283179 217.066154 
L 219.030836 217.699907 
L 218.338487 218.248228 
L 218.135063 218.684052 
L 218.234215 218.88137 
L 218.544529 219.055808 
L 219.411414 219.239394 
L 222.110461 219.460812 
L 233.086481 220.019758 
L 243.119951 220.352157 
L 248.963102 220.308819 
L 254.174871 220.036352 
L 258.766416 219.583798 
L 263.283636 218.918771 
L 267.445087 218.279314 
L 267.445087 218.279314 
" style="fill:none;stroke:#000000;stroke-linecap:square;stroke-opacity:0.7;stroke-width:1.2;"/>
   </g>
   <g id="line2d_17">
    <path clip-path="url(#p52bd249a16)" d="M 267.024222 199.273685 
L 265.687509 199.132747 
L 262.760914 198.561636 
L 255.117303 197.028458 
L 250.808913 196.384642 
L 246.423137 195.951346 
L 242.616258 195.774584 
L 237.860752 195.797729 
L 232.410193 196.07161 
L 227.644587 196.527357 
L 223.973336 197.111382 
L 221.508355 197.738417 
L 219.950703 198.324475 
L 218.795804 198.975185 
L 218.302355 199.456082 
L 218.192278 199.788257 
L 218.304928 200.02809 
L 218.650894 200.239873 
L 219.469182 200.454 
L 221.649863 200.705212 
L 226.577648 200.985083 
L 235.143497 201.225271 
L 242.388067 201.252664 
L 248.786658 201.052643 
L 255.17679 200.615475 
L 262.9335 199.82538 
L 267.190251 199.462294 
L 267.190251 199.462294 
" style="fill:none;stroke:#000000;stroke-linecap:square;stroke-opacity:0.7;stroke-width:1.2;"/>
   </g>
   <g id="line2d_18">
    <path clip-path="url(#p52bd249a16)" d="M 266.915004 180.413424 
L 265.306262 180.202791 
L 257.820582 178.800319 
L 252.861165 177.996857 
L 247.85398 177.404402 
L 243.113609 177.091284 
L 238.79719 177.034034 
L 233.603558 177.208252 
L 228.780623 177.577049 
L 224.984777 178.075106 
L 222.52554 178.587882 
L 220.349056 179.285436 
L 219.056836 179.926536 
L 218.329224 180.554132 
L 218.207433 180.890228 
L 218.321156 181.151047 
L 218.70054 181.390572 
L 219.508986 181.622516 
L 221.655802 181.917071 
L 225.55836 182.177574 
L 231.718181 182.337185 
L 238.789197 182.316178 
L 246.047391 182.073743 
L 253.93341 181.565133 
L 267.077712 180.622398 
L 267.077712 180.622398 
" style="fill:none;stroke:#000000;stroke-linecap:square;stroke-opacity:0.7;stroke-width:1.2;"/>
   </g>
   <g id="line2d_19">
    <path clip-path="url(#p52bd249a16)" d="M 266.880374 161.573799 
L 264.369067 161.206277 
L 252.222886 159.237571 
L 246.849641 158.660556 
L 242.419884 158.387263 
L 237.602861 158.320805 
L 232.090804 158.497253 
L 227.688869 158.838171 
L 224.475998 159.283781 
L 221.907911 159.870942 
L 220.257072 160.44287 
L 218.991944 161.089119 
L 218.305235 161.695003 
L 218.190652 162.03166 
L 218.327327 162.31056 
L 218.776674 162.580469 
L 219.616582 162.832395 
L 221.788655 163.183458 
L 225.345369 163.479171 
L 229.993427 163.624881 
L 236.075401 163.570875 
L 243.274236 163.267205 
L 254.04432 162.546061 
L 264.839349 161.852144 
L 267.135456 161.790335 
L 267.135456 161.790335 
" style="fill:none;stroke:#000000;stroke-linecap:square;stroke-opacity:0.7;stroke-width:1.2;"/>
   </g>
   <g id="line2d_20">
    <path clip-path="url(#p52bd249a16)" d="M 266.902145 142.756059 
L 264.010127 142.348546 
L 253.917978 140.867244 
L 247.675386 140.208273 
L 242.543631 139.881528 
L 237.61303 139.781277 
L 231.51161 139.896213 
L 226.779933 140.187866 
L 224.254371 140.513171 
L 222.264682 140.931188 
L 220.431374 141.522691 
L 219.16482 142.131853 
L 218.337896 142.780002 
L 218.167991 143.111591 
L 218.258136 143.431734 
L 218.67151 143.735356 
L 219.773665 144.121118 
L 221.920644 144.545805 
L 224.903652 144.873766 
L 228.483861 145.030082 
L 232.756116 144.98475 
L 238.579782 144.672391 
L 263.304369 143.067985 
L 267.280611 142.961334 
L 267.280611 142.961334 
" style="fill:none;stroke:#000000;stroke-linecap:square;stroke-opacity:0.7;stroke-width:1.2;"/>
   </g>
   <g id="line2d_21">
    <path clip-path="url(#p52bd249a16)" d="M 330.435266 218.093716 
L 329.745627 218.035679 
L 327.246174 217.347032 
L 321.067256 215.463971 
L 317.20145 214.528414 
L 313.366481 213.838274 
L 309.658341 213.417344 
L 305.923907 213.244443 
L 301.790761 213.306427 
L 297.175907 213.610828 
L 292.942842 214.105089 
L 289.751204 214.671608 
L 286.733574 215.447594 
L 284.719315 216.159586 
L 282.915804 217.016262 
L 281.873815 217.707676 
L 281.271672 218.350121 
L 281.169563 218.753116 
L 281.323765 219.014348 
L 281.668522 219.214267 
L 282.490476 219.4417 
L 285.146488 219.814143 
L 290.895985 220.35443 
L 298.705463 220.861895 
L 305.388873 221.098995 
L 310.690606 221.062218 
L 314.783919 220.843511 
L 318.592021 220.467002 
L 322.904254 219.815818 
L 327.848608 218.77321 
L 330.401755 218.30153 
L 330.534829 218.296806 
L 330.534829 218.296806 
" style="fill:none;stroke:#000000;stroke-linecap:square;stroke-opacity:0.7;stroke-width:1.2;"/>
   </g>
   <g id="line2d_22">
    <path clip-path="url(#p52bd249a16)" d="M 330.205437 199.287587 
L 329.525267 199.228038 
L 326.982762 198.667043 
L 317.64161 196.334166 
L 313.288491 195.531721 
L 309.56211 195.049224 
L 305.687575 194.772407 
L 302.253067 194.717986 
L 297.872691 194.865335 
L 293.537816 195.225017 
L 290.208268 195.692645 
L 287.149708 196.365033 
L 284.703873 197.173192 
L 282.943497 198.010907 
L 281.917668 198.713734 
L 281.347991 199.353648 
L 281.234421 199.804981 
L 281.407635 200.134738 
L 281.788198 200.38657 
L 282.56617 200.655618 
L 284.266725 200.993138 
L 288.082634 201.459597 
L 293.331203 201.864998 
L 299.060941 202.113134 
L 305.005415 202.152025 
L 310.011486 201.959973 
L 315.147226 201.531216 
L 320.28824 200.891069 
L 330.346528 199.497905 
L 330.346528 199.497905 
" style="fill:none;stroke:#000000;stroke-linecap:square;stroke-opacity:0.7;stroke-width:1.2;"/>
   </g>
   <g id="line2d_23">
    <path clip-path="url(#p52bd249a16)" d="M 330.05955 180.471202 
L 329.386348 180.396207 
L 325.802691 179.66592 
L 316.879641 177.723014 
L 312.104519 176.926302 
L 307.723471 176.41497 
L 303.93239 176.172165 
L 299.770848 176.124899 
L 295.419129 176.293831 
L 291.4506 176.66167 
L 288.364784 177.173056 
L 286.064127 177.771066 
L 284.286976 178.427716 
L 282.671897 179.264947 
L 281.714869 179.999769 
L 281.296932 180.572053 
L 281.262986 180.993424 
L 281.507797 181.329663 
L 281.996274 181.614145 
L 283.259596 182.012142 
L 285.510004 182.43465 
L 289.096426 182.855206 
L 293.684815 183.158518 
L 299.088742 183.283752 
L 304.473017 183.177707 
L 309.899268 182.834087 
L 316.634274 182.153356 
L 329.658812 180.73018 
L 330.261777 180.719287 
L 330.261777 180.719287 
" style="fill:none;stroke:#000000;stroke-linecap:square;stroke-opacity:0.7;stroke-width:1.2;"/>
   </g>
   <g id="line2d_24">
    <path clip-path="url(#p52bd249a16)" d="M 329.965545 161.644936 
L 327.88672 161.322633 
L 312.153319 158.417223 
L 307.293944 157.848237 
L 302.891073 157.551721 
L 298.56003 157.480315 
L 294.168692 157.618953 
L 290.416152 157.955531 
L 287.689881 158.424541 
L 285.507791 159.035933 
L 283.803002 159.739088 
L 282.564379 160.446308 
L 281.647433 161.195938 
L 281.277666 161.730678 
L 281.248978 162.160304 
L 281.529159 162.533719 
L 282.057426 162.848111 
L 283.290299 163.280342 
L 285.559245 163.774409 
L 288.53718 164.178294 
L 292.177807 164.450309 
L 296.568422 164.548116 
L 301.376256 164.422152 
L 307.128248 164.012227 
L 315.37084 163.165802 
L 326.093656 162.104451 
L 330.258115 161.895438 
L 330.258115 161.895438 
" style="fill:none;stroke:#000000;stroke-linecap:square;stroke-opacity:0.7;stroke-width:1.2;"/>
   </g>
   <g id="line2d_25">
    <path clip-path="url(#p52bd249a16)" d="M 329.903293 142.825994 
L 327.84395 142.525653 
L 311.589797 139.849985 
L 306.355534 139.285077 
L 301.168448 138.962559 
L 296.513187 138.886755 
L 291.975904 139.020304 
L 289.057307 139.302259 
L 286.601247 139.774004 
L 284.784475 140.356738 
L 283.238978 141.100061 
L 282.161454 141.841899 
L 281.417352 142.627937 
L 281.223589 143.099599 
L 281.260479 143.418098 
L 281.442026 143.698468 
L 281.981444 144.099366 
L 283.104435 144.58344 
L 284.791879 145.056726 
L 287.154977 145.488619 
L 290.239186 145.807362 
L 293.818827 145.933352 
L 297.930099 145.831713 
L 302.358749 145.50207 
L 311.135335 144.557212 
L 320.645725 143.606863 
L 327.378176 143.157268 
L 330.325925 143.050856 
L 330.325925 143.050856 
" style="fill:none;stroke:#000000;stroke-linecap:square;stroke-opacity:0.7;stroke-width:1.2;"/>
   </g>
  </g>
 </g>
 <defs>
  <clipPath id="p52bd249a16">
   <rect height="329.04" width="329.04" x="15.48" y="15.48"/>
  </clipPath>
 </defs>
</svg>
