<?xml version="1.0" encoding="utf-8" standalone="no"?>
<!DOCTYPE svg PUBLIC "-//W3C//DTD SVG 1.1//EN"
  "http://www.w3.org/Graphics/SVG/1.1/DTD/svg11.dtd">
<!-- Created with matplotlib (http://matplotlib.org/) -->
<svg height="360pt" version="1.1" viewBox="0 0 360 360" width="360pt" xmlns="http://www.w3.org/2000/svg" xmlns:xlink="http://www.w3.org/1999/xlink">
 <defs>
  <style type="text/css">
*{stroke-linecap:butt;stroke-linejoin:round;}
  </style>
 </defs>
 <g id="figure_1">
  <g id="patch_1">
   <path d="M 0 360 
L 360 360 
L 360 0 
L 0 0 
z
" style="fill:#ffffff;"/>
  </g>
  <g id="axes_1">
   <g id="line2d_1">
    <path clip-path="url(#pb1210ceacf)" d="M 78.075705 219.629139 
L 67.541944 218.10214 
L 60.961864 217.410336 
L 54.431222 216.949956 
L 48.070705 216.737765 
L 40.252046 216.73474 
L 37.088928 216.875583 
L 34.592467 217.204637 
L 32.167486 217.785216 
L 30.662525 218.359017 
L 30.639415 218.441987 
L 30.672899 218.459007 
L 30.928028 218.449956 
L 34.737822 217.692668 
L 37.76315 217.474019 
L 42.791589 217.367956 
L 47.85781 217.44989 
L 54.472628 217.798474 
L 62.673056 218.46649 
L 77.275148 219.706187 
L 78.508458 219.626389 
L 78.508458 219.626389 
" style="fill:none;stroke:#000000;stroke-linecap:square;stroke-opacity:0.7;stroke-width:1.2;"/>
   </g>
   <g id="line2d_2">
    <path clip-path="url(#pb1210ceacf)" d="M 77.908009 200.749472 
L 71.467963 199.720433 
L 64.523028 198.84805 
L 58.368932 198.283293 
L 52.258202 197.938163 
L 47.076279 197.846882 
L 41.414652 197.976882 
L 37.661212 198.230385 
L 35.14551 198.624609 
L 33.413502 199.108791 
L 32.013494 199.724818 
L 30.918636 200.473914 
L 30.266771 200.916822 
L 30.33204 200.771122 
L 30.82415 200.386714 
L 31.957307 199.825654 
L 33.393346 199.337614 
L 35.474597 198.87203 
L 38.190133 198.522457 
L 41.650695 198.327583 
L 45.681649 198.323497 
L 50.869129 198.54787 
L 58.580491 199.139149 
L 78.108523 200.765365 
L 78.222676 200.754703 
L 78.222676 200.754703 
" style="fill:none;stroke:#000000;stroke-linecap:square;stroke-opacity:0.7;stroke-width:1.2;"/>
   </g>
   <g id="line2d_3">
    <path clip-path="url(#pb1210ceacf)" d="M 77.672227 181.866634 
L 73.494003 181.142529 
L 67.094123 180.255346 
L 60.331507 179.553276 
L 54.185543 179.135143 
L 48.737572 178.980947 
L 43.840829 179.071915 
L 39.070893 179.406624 
L 35.919069 179.8444 
L 33.733315 180.379422 
L 32.178354 180.96278 
L 30.800785 181.725288 
L 29.971481 182.326151 
L 31.222735 181.522059 
L 33.04026 180.754046 
L 35.021656 180.154564 
L 37.470649 179.658107 
L 39.828147 179.369628 
L 43.384733 179.186878 
L 47.486221 179.230325 
L 53.178778 179.543015 
L 61.755854 180.273141 
L 77.946344 181.837788 
L 77.946344 181.837788 
" style="fill:none;stroke:#000000;stroke-linecap:square;stroke-opacity:0.7;stroke-width:1.2;"/>
   </g>
   <g id="line2d_4">
    <path clip-path="url(#pb1210ceacf)" d="M 77.420008 162.990885 
L 73.273601 162.260303 
L 67.958595 161.52527 
L 61.071479 160.803389 
L 55.154688 160.383169 
L 49.519276 160.18963 
L 44.625803 160.246103 
L 40.188907 160.539249 
L 36.313091 161.022556 
L 33.811333 161.565596 
L 31.85826 162.243309 
L 30.476578 162.955152 
L 29.692667 163.553242 
L 29.736541 163.553528 
L 30.433604 163.249427 
L 33.632169 161.834811 
L 35.830716 161.09672 
L 38.218828 160.524308 
L 40.9284 160.122521 
L 43.987403 159.914554 
L 47.275435 159.890368 
L 51.816117 160.06099 
L 58.575299 160.566824 
L 65.7525 161.321644 
L 73.629088 162.369791 
L 77.816015 162.898354 
L 77.816015 162.898354 
" style="fill:none;stroke:#000000;stroke-linecap:square;stroke-opacity:0.7;stroke-width:1.2;"/>
   </g>
   <g id="line2d_5">
    <path clip-path="url(#pb1210ceacf)" d="M 77.228166 144.087922 
L 73.977726 143.527607 
L 67.940692 142.734277 
L 61.62288 142.123843 
L 54.778728 141.686879 
L 48.686931 141.530642 
L 43.792459 141.630435 
L 39.278277 141.962168 
L 35.00406 142.497223 
L 32.921821 142.965284 
L 31.397149 143.510938 
L 30.100725 144.192838 
L 29.471327 144.736662 
L 29.600205 144.752131 
L 30.157815 144.599072 
L 32.076635 143.767041 
L 35.15007 142.454503 
L 37.309135 141.721231 
L 39.835678 141.07974 
L 42.560083 140.623969 
L 45.513494 140.35488 
L 49.34735 140.259748 
L 53.705902 140.389444 
L 59.416857 140.823697 
L 64.867035 141.458316 
L 70.647587 142.351663 
L 77.883128 143.684507 
L 77.883128 143.684507 
" style="fill:none;stroke:#000000;stroke-linecap:square;stroke-opacity:0.7;stroke-width:1.2;"/>
   </g>
   <g id="line2d_6">
    <path clip-path="url(#pb1210ceacf)" d="M 140.98017 219.648258 
L 136.397312 218.882289 
L 129.532963 217.788067 
L 123.274405 216.992891 
L 117.663801 216.479374 
L 111.102047 216.127207 
L 103.402412 215.94747 
L 100.454933 216.074831 
L 97.6417 216.405687 
L 93.856865 217.101895 
L 92.645615 217.452289 
L 92.207407 217.794701 
L 92.202662 218.077306 
L 92.379081 218.323232 
L 92.786214 218.580831 
L 93.797779 218.833698 
L 95.357674 218.906456 
L 114.85768 218.891306 
L 125.305288 219.312956 
L 137.872602 219.792929 
L 140.801688 219.686248 
L 141.403918 219.611057 
L 141.403918 219.611057 
" style="fill:none;stroke:#000000;stroke-linecap:square;stroke-opacity:0.7;stroke-width:1.2;"/>
   </g>
   <g id="line2d_7">
    <path clip-path="url(#pb1210ceacf)" d="M 140.855163 200.740927 
L 126.977999 198.419422 
L 121.253251 197.756198 
L 115.714917 197.340741 
L 110.794745 197.185717 
L 104.837009 197.24133 
L 101.463751 197.466174 
L 99.024738 197.830468 
L 97.051354 198.304578 
L 95.170761 198.947006 
L 93.410713 199.786843 
L 92.340445 200.563781 
L 92.174284 200.883228 
L 92.288915 200.995294 
L 92.604762 201.032008 
L 93.951516 200.86418 
L 98.116468 200.272251 
L 101.973628 199.989455 
L 107.162598 199.86439 
L 113.592637 199.938035 
L 123.98443 200.314474 
L 138.909122 200.849325 
L 141.078741 200.781729 
L 141.078741 200.781729 
" style="fill:none;stroke:#000000;stroke-linecap:square;stroke-opacity:0.7;stroke-width:1.2;"/>
   </g>
   <g id="line2d_8">
    <path clip-path="url(#pb1210ceacf)" d="M 140.674413 181.843423 
L 131.877014 180.179418 
L 126.250038 179.323102 
L 120.305591 178.648333 
L 115.199359 178.302505 
L 110.932794 178.220831 
L 106.502587 178.353662 
L 102.61093 178.658209 
L 99.565949 179.118163 
L 97.133756 179.726917 
L 95.151899 180.447864 
L 93.365218 181.35435 
L 92.294415 182.167433 
L 92.132516 182.49212 
L 92.274373 182.575638 
L 92.883436 182.52815 
L 100.228193 181.240468 
L 104.277473 180.951714 
L 109.142064 180.85657 
L 116.306047 180.95943 
L 127.938391 181.373036 
L 140.740259 181.895001 
L 140.740259 181.895001 
" style="fill:none;stroke:#000000;stroke-linecap:square;stroke-opacity:0.7;stroke-width:1.2;"/>
   </g>
   <g id="line2d_9">
    <path clip-path="url(#pb1210ceacf)" d="M 140.491508 162.951825 
L 135.319587 161.884796 
L 129.374942 160.858596 
L 122.963813 159.997629 
L 117.613377 159.510778 
L 112.997496 159.308639 
L 108.705236 159.352885 
L 104.386844 159.638507 
L 100.670709 160.096342 
L 98.462112 160.53484 
L 96.465015 161.09936 
L 94.568158 161.832856 
L 93.197469 162.53789 
L 92.247099 163.23273 
L 92.032576 163.592673 
L 92.114117 163.718104 
L 92.463759 163.781268 
L 93.580499 163.634105 
L 100.61322 162.273058 
L 104.643176 161.852777 
L 109.242963 161.605978 
L 115.10461 161.498846 
L 121.80167 161.605099 
L 128.777811 161.948942 
L 135.951596 162.539511 
L 140.577881 162.948717 
L 140.577881 162.948717 
" style="fill:none;stroke:#000000;stroke-linecap:square;stroke-opacity:0.7;stroke-width:1.2;"/>
   </g>
   <g id="line2d_10">
    <path clip-path="url(#pb1210ceacf)" d="M 140.401789 144.085754 
L 136.452624 143.237317 
L 130.815153 142.247634 
L 124.780324 141.410072 
L 119.152561 140.846093 
L 114.384141 140.569151 
L 110.103845 140.52759 
L 105.902363 140.725603 
L 101.350649 141.19471 
L 98.404552 141.709819 
L 96.081357 142.356838 
L 94.221072 143.101424 
L 92.968156 143.770445 
L 92.134285 144.415233 
L 92.00458 144.76269 
L 92.155868 144.899065 
L 92.59528 144.973541 
L 93.752402 144.850986 
L 96.50399 144.20359 
L 100.585012 143.277668 
L 104.401108 142.649264 
L 108.709155 142.161709 
L 113.532327 141.847613 
L 118.149845 141.776543 
L 123.127729 141.922288 
L 128.464634 142.303816 
L 133.546284 142.875749 
L 140.683218 143.912607 
L 140.683218 143.912607 
" style="fill:none;stroke:#000000;stroke-linecap:square;stroke-opacity:0.7;stroke-width:1.2;"/>
   </g>
   <g id="line2d_11">
    <path clip-path="url(#pb1210ceacf)" d="M 204.024423 219.662174 
L 201.254249 219.155041 
L 191.270861 217.228255 
L 185.238407 216.323854 
L 179.618355 215.724194 
L 174.315634 215.38078 
L 168.534617 215.225194 
L 164.920122 215.344048 
L 161.863887 215.670531 
L 159.000598 216.195964 
L 156.739675 216.821151 
L 155.737429 217.263681 
L 155.140891 217.768096 
L 155.008121 218.137484 
L 155.112148 218.516026 
L 155.502826 218.888116 
L 156.12543 219.166076 
L 157.475856 219.424542 
L 159.734555 219.544196 
L 194.988746 220.10199 
L 200.382126 220.009284 
L 203.526485 219.754968 
L 204.400389 219.642394 
L 204.400389 219.642394 
" style="fill:none;stroke:#000000;stroke-linecap:square;stroke-opacity:0.7;stroke-width:1.2;"/>
   </g>
   <g id="line2d_12">
    <path clip-path="url(#pb1210ceacf)" d="M 203.882119 200.775646 
L 199.973627 199.962703 
L 192.70728 198.488097 
L 186.461403 197.47526 
L 181.115675 196.862861 
L 176.569616 196.565053 
L 171.787258 196.480971 
L 167.726689 196.595402 
L 164.568227 196.874946 
L 161.985254 197.317413 
L 160.087108 197.826332 
L 158.218253 198.536752 
L 156.795307 199.2751 
L 155.779623 199.982884 
L 155.058165 200.752478 
L 154.941131 201.140533 
L 155.050787 201.332454 
L 155.313669 201.449612 
L 156.191934 201.506786 
L 158.99175 201.289479 
L 164.024649 200.960954 
L 169.801832 200.833339 
L 178.583742 200.886779 
L 196.771673 201.043704 
L 203.001464 200.875226 
L 204.120994 200.804581 
L 204.120994 200.804581 
" style="fill:none;stroke:#000000;stroke-linecap:square;stroke-opacity:0.7;stroke-width:1.2;"/>
   </g>
   <g id="line2d_13">
    <path clip-path="url(#pb1210ceacf)" d="M 203.766252 181.885145 
L 188.621966 178.823708 
L 183.768351 178.169231 
L 179.311725 177.779027 
L 175.098198 177.630415 
L 170.490452 177.71669 
L 166.119807 178.031747 
L 162.971672 178.478173 
L 160.456445 179.065506 
L 158.485156 179.742365 
L 156.915521 180.481464 
L 155.585858 181.360121 
L 154.91988 182.079599 
L 154.821859 182.472166 
L 154.963136 182.668935 
L 155.449634 182.817566 
L 156.443619 182.837643 
L 159.886483 182.554346 
L 165.894589 182.12671 
L 172.021823 181.938 
L 181.704119 181.89632 
L 203.932068 181.97163 
L 203.932068 181.97163 
" style="fill:none;stroke:#000000;stroke-linecap:square;stroke-opacity:0.7;stroke-width:1.2;"/>
   </g>
   <g id="line2d_14">
    <path clip-path="url(#pb1210ceacf)" d="M 203.689277 162.990815 
L 194.48122 160.956167 
L 188.58504 159.917852 
L 183.274359 159.227149 
L 178.845278 158.872088 
L 174.687962 158.760042 
L 170.505799 158.869964 
L 166.021357 159.210474 
L 162.817993 159.666107 
L 160.301919 160.255547 
L 158.337414 160.937682 
L 156.774642 161.686083 
L 155.497218 162.548282 
L 154.896452 163.227137 
L 154.830596 163.632309 
L 155.02245 163.846698 
L 155.551126 164.003687 
L 156.529269 164.045579 
L 158.9849 163.873445 
L 167.672924 163.132222 
L 175.440461 162.767371 
L 184.783383 162.551701 
L 192.732366 162.595577 
L 199.918816 162.861643 
L 203.89219 163.064669 
L 203.89219 163.064669 
" style="fill:none;stroke:#000000;stroke-linecap:square;stroke-opacity:0.7;stroke-width:1.2;"/>
   </g>
   <g id="line2d_15">
    <path clip-path="url(#pb1210ceacf)" d="M 203.69264 144.113403 
L 198.694148 142.928728 
L 193.056791 141.785252 
L 187.038187 140.812776 
L 181.928947 140.227239 
L 177.358 139.937621 
L 173.642398 139.899052 
L 169.329565 140.073004 
L 164.896921 140.462356 
L 162.040901 140.912778 
L 159.682707 141.523584 
L 157.655044 142.323448 
L 156.332765 143.05013 
L 155.217259 143.928081 
L 154.855717 144.490603 
L 154.88073 144.793328 
L 155.138038 145.028076 
L 155.717778 145.197932 
L 156.681293 145.259758 
L 159.076329 145.100737 
L 178.983764 143.040957 
L 184.531136 142.824993 
L 189.155758 142.846698 
L 194.265154 143.079759 
L 199.54981 143.558815 
L 203.936188 144.058618 
L 203.936188 144.058618 
" style="fill:none;stroke:#000000;stroke-linecap:square;stroke-opacity:0.7;stroke-width:1.2;"/>
   </g>
   <g id="line2d_16">
    <path clip-path="url(#pb1210ceacf)" d="M 267.180411 219.679718 
L 265.453495 219.313658 
L 253.533558 216.483589 
L 248.495729 215.568541 
L 243.634805 214.911778 
L 238.71705 214.493389 
L 234.196786 214.323411 
L 230.738529 214.371938 
L 227.461786 214.650662 
L 224.860385 215.109179 
L 222.482887 215.765121 
L 220.602097 216.491778 
L 219.298176 217.176895 
L 218.305707 217.963336 
L 217.917619 218.58601 
L 217.89043 219.004418 
L 218.040471 219.311193 
L 218.325174 219.551259 
L 218.874048 219.779294 
L 220.236447 219.994206 
L 223.095698 220.082592 
L 237.374184 220.306103 
L 253.712206 220.608076 
L 259.749398 220.481113 
L 263.718367 220.21269 
L 267.030789 219.763201 
L 267.456993 219.705844 
L 267.456993 219.705844 
" style="fill:none;stroke:#000000;stroke-linecap:square;stroke-opacity:0.7;stroke-width:1.2;"/>
   </g>
   <g id="line2d_17">
    <path clip-path="url(#pb1210ceacf)" d="M 267.033254 200.809007 
L 264.421669 200.181157 
L 255.806382 198.069496 
L 250.56809 197.028529 
L 245.805389 196.306621 
L 241.267712 195.858066 
L 237.121691 195.670096 
L 232.981793 195.688838 
L 229.574661 195.900544 
L 226.761125 196.299872 
L 224.410978 196.881011 
L 222.441553 197.605878 
L 220.519382 198.587898 
L 219.224989 199.475827 
L 218.316646 200.3237 
L 217.847362 201.086142 
L 217.848525 201.408618 
L 218.042667 201.625508 
L 218.65176 201.793797 
L 219.866591 201.824612 
L 236.209655 201.391885 
L 257.695222 201.356575 
L 264.227419 201.084798 
L 267.261935 200.866154 
L 267.261935 200.866154 
" style="fill:none;stroke:#000000;stroke-linecap:square;stroke-opacity:0.7;stroke-width:1.2;"/>
   </g>
   <g id="line2d_18">
    <path clip-path="url(#pb1210ceacf)" d="M 266.96239 181.952937 
L 262.979239 180.929106 
L 256.282244 179.286365 
L 251.13315 178.25091 
L 246.285003 177.512723 
L 241.882624 177.084556 
L 237.778856 176.919319 
L 233.539845 176.972765 
L 229.589959 177.237288 
L 226.701069 177.64192 
L 224.282431 178.21244 
L 222.303693 178.904248 
L 220.652656 179.688874 
L 219.358952 180.497026 
L 218.461024 181.24646 
L 217.919853 181.931401 
L 217.783086 182.383519 
L 217.890275 182.691628 
L 218.231425 182.922911 
L 219.024532 183.098003 
L 220.835376 183.156072 
L 226.02689 182.953673 
L 235.321613 182.638534 
L 257.95527 182.25775 
L 267.217123 182.036503 
L 267.217123 182.036503 
" style="fill:none;stroke:#000000;stroke-linecap:square;stroke-opacity:0.7;stroke-width:1.2;"/>
   </g>
   <g id="line2d_19">
    <path clip-path="url(#pb1210ceacf)" d="M 266.936446 163.078262 
L 253.461439 159.843632 
L 248.593972 159.008876 
L 244.524093 158.505397 
L 240.140934 158.197946 
L 236.277325 158.140359 
L 231.919122 158.28625 
L 228.533569 158.577508 
L 225.582445 159.059429 
L 223.570945 159.591779 
L 221.665134 160.315513 
L 220.14169 161.100207 
L 218.881221 161.964888 
L 218.131688 162.686811 
L 217.800458 163.235804 
L 217.78115 163.641888 
L 218.00137 163.932902 
L 218.514709 164.169201 
L 219.462638 164.337283 
L 221.345655 164.410317 
L 225.539842 164.270856 
L 247.574632 163.270411 
L 257.331907 163.08905 
L 265.298144 163.141759 
L 267.234117 163.167988 
L 267.234117 163.167988 
" style="fill:none;stroke:#000000;stroke-linecap:square;stroke-opacity:0.7;stroke-width:1.2;"/>
   </g>
   <g id="line2d_20">
    <path clip-path="url(#pb1210ceacf)" d="M 266.957178 144.205131 
L 258.578361 142.056531 
L 253.081095 140.904712 
L 248.307665 140.120768 
L 243.440657 139.571721 
L 239.844876 139.358044 
L 235.357511 139.329901 
L 230.956769 139.515816 
L 227.262049 139.878396 
L 224.842255 140.321915 
L 222.897206 140.886171 
L 221.029449 141.683871 
L 219.392199 142.679878 
L 218.306916 143.632496 
L 217.902749 144.228733 
L 217.837897 144.685398 
L 218.052 145.03602 
L 218.497909 145.296998 
L 219.313471 145.517168 
L 221.029482 145.677273 
L 223.896087 145.644818 
L 228.5713 145.331344 
L 237.310494 144.489022 
L 244.114963 143.895568 
L 249.812881 143.614751 
L 255.312011 143.559605 
L 260.747899 143.725448 
L 266.165112 144.126457 
L 267.258265 144.193848 
L 267.258265 144.193848 
" style="fill:none;stroke:#000000;stroke-linecap:square;stroke-opacity:0.7;stroke-width:1.2;"/>
   </g>
   <g id="line2d_21">
    <path clip-path="url(#pb1210ceacf)" d="M 330.442065 219.632403 
L 329.732335 219.470093 
L 323.984639 217.719686 
L 318.191829 216.100948 
L 313.394709 214.987866 
L 309.128799 214.203005 
L 304.690762 213.619228 
L 300.50517 213.299926 
L 296.719204 213.228841 
L 293.691804 213.382006 
L 290.873607 213.782793 
L 288.650788 214.344505 
L 286.41401 215.181405 
L 284.336102 216.248365 
L 282.839807 217.248548 
L 281.893915 218.056188 
L 281.085522 219.056948 
L 280.886044 219.639089 
L 281.003446 220.066996 
L 281.401013 220.348191 
L 282.360199 220.565077 
L 284.649288 220.694979 
L 315.276604 221.399975 
L 320.090167 221.212996 
L 324.387877 220.833481 
L 327.873205 220.303309 
L 330.534829 219.774378 
L 330.534829 219.774378 
" style="fill:none;stroke:#000000;stroke-linecap:square;stroke-opacity:0.7;stroke-width:1.2;"/>
   </g>
   <g id="line2d_22">
    <path clip-path="url(#pb1210ceacf)" d="M 330.326886 200.792227 
L 328.387751 200.242819 
L 320.026423 197.785361 
L 314.980972 196.560947 
L 310.715326 195.727291 
L 306.601897 195.128128 
L 302.535044 194.754906 
L 298.035451 194.599172 
L 294.533251 194.697156 
L 291.646068 195.005669 
L 289.44717 195.455847 
L 287.453531 196.083642 
L 285.764715 196.813733 
L 283.825871 197.921583 
L 282.401016 198.987616 
L 281.437332 199.9453 
L 280.909457 200.764921 
L 280.81634 201.296852 
L 280.953754 201.613245 
L 281.354903 201.891186 
L 282.258395 202.113939 
L 284.099543 202.237085 
L 289.186596 202.23124 
L 304.432162 202.19322 
L 314.052554 202.109756 
L 320.850802 201.832826 
L 326.290218 201.409065 
L 330.447302 200.93424 
L 330.447302 200.93424 
" style="fill:none;stroke:#000000;stroke-linecap:square;stroke-opacity:0.7;stroke-width:1.2;"/>
   </g>
   <g id="line2d_23">
    <path clip-path="url(#pb1210ceacf)" d="M 330.272234 181.987991 
L 327.161984 181.040345 
L 321.39038 179.335966 
L 316.493161 178.107047 
L 312.06433 177.204947 
L 307.823472 176.557979 
L 303.954869 176.177224 
L 299.793716 175.993576 
L 295.921202 176.024863 
L 292.772665 176.242023 
L 290.07621 176.655812 
L 287.859895 177.236343 
L 286.050752 177.922423 
L 284.284574 178.817133 
L 282.788232 179.800052 
L 281.609428 180.82284 
L 280.948256 181.693166 
L 280.774199 182.303807 
L 280.902929 182.716375 
L 281.237078 183.013814 
L 281.972183 183.294432 
L 283.235565 183.491896 
L 285.634291 183.59497 
L 291.001775 183.523897 
L 318.885837 182.717357 
L 330.444507 182.122258 
L 330.444507 182.122258 
" style="fill:none;stroke:#000000;stroke-linecap:square;stroke-opacity:0.7;stroke-width:1.2;"/>
   </g>
   <g id="line2d_24">
    <path clip-path="url(#pb1210ceacf)" d="M 330.25577 163.138011 
L 318.177956 159.688839 
L 313.47363 158.687154 
L 309.289 158.004595 
L 305.308009 157.563492 
L 301.153196 157.331645 
L 296.66759 157.318173 
L 292.914722 157.525133 
L 290.132078 157.904568 
L 287.813659 158.468259 
L 285.962788 159.147193 
L 284.18006 160.048441 
L 282.670628 161.062403 
L 281.551271 162.070857 
L 280.973901 162.870741 
L 280.834124 163.469374 
L 281.009712 163.899488 
L 281.383237 164.203203 
L 282.114632 164.493272 
L 283.351141 164.727909 
L 285.71285 164.88665 
L 289.36134 164.875862 
L 296.145607 164.60257 
L 319.822924 163.499498 
L 330.458176 163.268291 
L 330.458176 163.268291 
" style="fill:none;stroke:#000000;stroke-linecap:square;stroke-opacity:0.7;stroke-width:1.2;"/>
   </g>
   <g id="line2d_25">
    <path clip-path="url(#pb1210ceacf)" d="M 330.259214 144.280599 
L 321.917821 141.806607 
L 317.101535 140.639599 
L 312.3306 139.711367 
L 308.178569 139.113549 
L 303.808288 138.72393 
L 299.747984 138.582673 
L 295.091735 138.643601 
L 291.845278 138.874136 
L 289.446708 139.232464 
L 287.226957 139.803254 
L 285.496016 140.480135 
L 283.717399 141.462965 
L 282.311123 142.529096 
L 281.349331 143.553335 
L 280.995915 144.230787 
L 280.967592 144.633864 
L 281.202402 145.098843 
L 281.621855 145.424156 
L 282.354387 145.737572 
L 283.552041 146.017808 
L 285.369183 146.215741 
L 288.385345 146.271641 
L 292.542749 146.081798 
L 298.096279 145.589968 
L 309.583046 144.521347 
L 316.063694 144.198742 
L 322.646338 144.114748 
L 328.491956 144.268227 
L 330.486982 144.33995 
L 330.486982 144.33995 
" style="fill:none;stroke:#000000;stroke-linecap:square;stroke-opacity:0.7;stroke-width:1.2;"/>
   </g>
  </g>
 </g>
 <defs>
  <clipPath id="pb1210ceacf">
   <rect height="329.04" width="329.04" x="15.48" y="15.48"/>
  </clipPath>
 </defs>
</svg>
