<?xml version="1.0" encoding="utf-8" standalone="no"?>
<!DOCTYPE svg PUBLIC "-//W3C//DTD SVG 1.1//EN"
  "http://www.w3.org/Graphics/SVG/1.1/DTD/svg11.dtd">
<!-- Created with matplotlib (http://matplotlib.org/) -->
<svg height="360pt" version="1.1" viewBox="0 0 360 360" width="360pt" xmlns="http://www.w3.org/2000/svg" xmlns:xlink="http://www.w3.org/1999/xlink">
 <defs>
  <style type="text/css">
*{stroke-linecap:butt;stroke-linejoin:round;}
  </style>
 </defs>
 <g id="figure_1">
  <g id="patch_1">
   <path d="M 0 360 
L 360 360 
L 360 0 
L 0 0 
z
" style="fill:#ffffff;"/>
  </g>
  <g id="axes_1">
   <g id="line2d_1">
    <path clip-path="url(#p79a2e7ba69)" d="M 78.596197 217.322853 
L 76.453704 217.198062 
L 65.191875 216.418411 
L 58.038048 216.1796 
L 51.084545 216.181257 
L 44.959576 216.414352 
L 40.258197 216.791433 
L 31.391659 217.658829 
L 29.94324 217.676524 
L 30.456086 217.575167 
L 32.617272 217.542523 
L 41.231849 217.796658 
L 53.440668 218.048148 
L 64.456358 218.046047 
L 73.996059 217.83844 
L 77.872618 217.593845 
L 78.990527 217.442931 
L 78.990527 217.442931 
" style="fill:none;stroke:#000000;stroke-linecap:square;stroke-opacity:0.7;stroke-width:1.2;"/>
   </g>
   <g id="line2d_2">
    <path clip-path="url(#p79a2e7ba69)" d="M 78.232633 198.457691 
L 75.112325 198.386748 
L 56.616441 197.754052 
L 47.891794 197.721115 
L 41.927351 197.89642 
L 37.715124 198.222371 
L 32.113613 198.692434 
L 29.667397 198.852848 
L 29.887848 198.888939 
L 32.799033 198.898191 
L 77.552821 198.702521 
L 78.826251 198.603617 
L 78.826251 198.603617 
" style="fill:none;stroke:#000000;stroke-linecap:square;stroke-opacity:0.7;stroke-width:1.2;"/>
   </g>
   <g id="line2d_3">
    <path clip-path="url(#p79a2e7ba69)" d="M 77.864764 179.59871 
L 74.40104 179.620513 
L 39.719713 179.340476 
L 34.965369 179.655998 
L 31.170519 179.836642 
L 29.614962 179.964088 
L 29.586206 180.005728 
L 29.642544 180.045718 
L 30.097855 180.108634 
L 33.035949 180.132606 
L 68.108338 179.933241 
L 78.31475 179.774732 
L 78.679361 179.749967 
L 78.679361 179.749967 
" style="fill:none;stroke:#000000;stroke-linecap:square;stroke-opacity:0.7;stroke-width:1.2;"/>
   </g>
   <g id="line2d_4">
    <path clip-path="url(#p79a2e7ba69)" d="M 77.590688 160.772213 
L 73.856145 160.890872 
L 63.97168 160.922005 
L 34.191612 160.968942 
L 29.50912 161.136949 
L 29.933089 161.250907 
L 31.79839 161.302584 
L 38.063523 161.16429 
L 50.268128 160.919565 
L 66.346413 160.889095 
L 78.54078 160.853664 
L 78.54078 160.853664 
" style="fill:none;stroke:#000000;stroke-linecap:square;stroke-opacity:0.7;stroke-width:1.2;"/>
   </g>
   <g id="line2d_5">
    <path clip-path="url(#p79a2e7ba69)" d="M 77.571738 141.955262 
L 73.865019 142.164306 
L 66.833715 142.330113 
L 50.909304 142.459321 
L 40.268622 142.348291 
L 33.38746 142.315749 
L 29.465171 142.293694 
L 29.801659 142.417658 
L 31.218302 142.51534 
L 34.801217 142.425706 
L 51.08935 141.773935 
L 61.940362 141.705476 
L 74.87963 141.841693 
L 78.53634 141.872694 
L 78.53634 141.872694 
" style="fill:none;stroke:#000000;stroke-linecap:square;stroke-opacity:0.7;stroke-width:1.2;"/>
   </g>
   <g id="line2d_6">
    <path clip-path="url(#p79a2e7ba69)" d="M 141.474626 217.26518 
L 140.453194 217.173377 
L 127.118938 215.496694 
L 121.977316 215.231518 
L 117.089973 215.213743 
L 111.705751 215.442708 
L 104.534383 215.99702 
L 93.894188 217.101371 
L 92.746701 217.448479 
L 92.414331 217.751247 
L 92.527199 217.885536 
L 93.167395 218.027992 
L 96.067321 218.1954 
L 109.730877 218.685893 
L 118.244581 218.813932 
L 125.49288 218.732173 
L 132.638115 218.439541 
L 138.172084 217.992479 
L 141.787147 217.50814 
L 141.787147 217.50814 
" style="fill:none;stroke:#000000;stroke-linecap:square;stroke-opacity:0.7;stroke-width:1.2;"/>
   </g>
   <g id="line2d_7">
    <path clip-path="url(#p79a2e7ba69)" d="M 141.167465 198.430404 
L 139.004066 198.268609 
L 126.348728 197.076935 
L 120.206361 196.776469 
L 114.61464 196.721268 
L 108.925778 196.894025 
L 103.149822 197.272633 
L 94.497851 198.058074 
L 93.011913 198.431687 
L 92.482023 198.774429 
L 92.477044 198.972963 
L 92.78362 199.153997 
L 93.782176 199.334695 
L 96.763141 199.532402 
L 103.721556 199.739767 
L 114.086105 199.82099 
L 123.345073 199.693499 
L 132.309132 199.355589 
L 139.047615 198.906528 
L 141.610265 198.681196 
L 141.610265 198.681196 
" style="fill:none;stroke:#000000;stroke-linecap:square;stroke-opacity:0.7;stroke-width:1.2;"/>
   </g>
   <g id="line2d_8">
    <path clip-path="url(#p79a2e7ba69)" d="M 140.796319 179.580118 
L 137.652989 179.432759 
L 119.975992 178.36847 
L 113.370646 178.22968 
L 107.239113 178.313035 
L 101.931923 178.595576 
L 94.337668 179.251881 
L 92.945658 179.580201 
L 92.433114 179.902696 
L 92.443106 180.119231 
L 92.816649 180.316761 
L 93.821935 180.502426 
L 96.839188 180.724253 
L 102.68188 180.891019 
L 111.780428 180.905006 
L 122.753011 180.710845 
L 133.903759 180.288445 
L 141.464133 179.829949 
L 141.464133 179.829949 
" style="fill:none;stroke:#000000;stroke-linecap:square;stroke-opacity:0.7;stroke-width:1.2;"/>
   </g>
   <g id="line2d_9">
    <path clip-path="url(#p79a2e7ba69)" d="M 140.511367 160.749638 
L 136.993611 160.684629 
L 109.695691 159.784848 
L 103.132128 159.88746 
L 97.450626 160.225135 
L 93.690012 160.551659 
L 92.640926 160.840302 
L 92.339247 161.092092 
L 92.393223 161.27652 
L 92.851429 161.490001 
L 94.266523 161.723358 
L 97.436242 161.940948 
L 102.607236 162.054188 
L 110.709072 161.983356 
L 125.975043 161.618157 
L 139.28787 161.097073 
L 141.4495 160.973183 
L 141.4495 160.973183 
" style="fill:none;stroke:#000000;stroke-linecap:square;stroke-opacity:0.7;stroke-width:1.2;"/>
   </g>
   <g id="line2d_10">
    <path clip-path="url(#p79a2e7ba69)" d="M 140.354175 141.94332 
L 137.412095 141.990001 
L 129.266504 141.858654 
L 104.952422 141.419802 
L 99.082952 141.500447 
L 93.439298 141.804706 
L 92.513352 142.043777 
L 92.261301 142.27037 
L 92.354112 142.465672 
L 92.930578 142.711125 
L 94.38395 142.965721 
L 97.007417 143.173588 
L 100.919975 143.262181 
L 107.079457 143.142682 
L 141.483659 142.103342 
L 141.483659 142.103342 
" style="fill:none;stroke:#000000;stroke-linecap:square;stroke-opacity:0.7;stroke-width:1.2;"/>
   </g>
   <g id="line2d_11">
    <path clip-path="url(#p79a2e7ba69)" d="M 204.282612 217.252275 
L 203.263396 217.154366 
L 200.764823 216.662295 
L 195.240834 215.566292 
L 190.794389 214.944954 
L 186.780383 214.617548 
L 182.596288 214.516903 
L 178.401974 214.641567 
L 170.951929 215.144715 
L 162.960097 215.865223 
L 158.692928 216.413241 
L 156.824878 216.828631 
L 155.672629 217.2907 
L 155.316856 217.629046 
L 155.338053 217.830611 
L 155.538885 217.982642 
L 156.311384 218.185704 
L 158.61029 218.412518 
L 167.274331 218.933268 
L 176.547108 219.306008 
L 183.254779 219.358882 
L 188.982698 219.184228 
L 194.274313 218.816482 
L 199.385038 218.231725 
L 204.540351 217.464413 
L 204.540351 217.464413 
" style="fill:none;stroke:#000000;stroke-linecap:square;stroke-opacity:0.7;stroke-width:1.2;"/>
   </g>
   <g id="line2d_12">
    <path clip-path="url(#p79a2e7ba69)" d="M 204.080883 198.382679 
L 202.81668 198.271109 
L 197.742464 197.476906 
L 192.102883 196.694487 
L 187.100615 196.237112 
L 182.437739 196.042242 
L 177.673231 196.080983 
L 171.722437 196.373159 
L 163.656914 196.976734 
L 158.913917 197.485142 
L 157.004897 197.876262 
L 155.772586 198.355752 
L 155.371713 198.72282 
L 155.376941 198.975719 
L 155.617802 199.173406 
L 156.380865 199.401091 
L 158.579744 199.66038 
L 164.086667 199.985502 
L 172.521995 200.253443 
L 180.232153 200.286729 
L 186.731055 200.09421 
L 193.04122 199.707055 
L 199.969425 199.057209 
L 204.325275 198.631618 
L 204.325275 198.631618 
" style="fill:none;stroke:#000000;stroke-linecap:square;stroke-opacity:0.7;stroke-width:1.2;"/>
   </g>
   <g id="line2d_13">
    <path clip-path="url(#p79a2e7ba69)" d="M 203.897576 179.529734 
L 201.758308 179.344229 
L 187.103895 177.776534 
L 181.777216 177.522215 
L 176.371313 177.499799 
L 170.464203 177.706913 
L 163.534968 178.164516 
L 158.944978 178.636233 
L 157.067344 179.014212 
L 155.825231 179.494694 
L 155.405687 179.869451 
L 155.399895 180.151382 
L 155.677954 180.38012 
L 156.458646 180.618354 
L 158.601056 180.894752 
L 163.053852 181.178024 
L 169.689016 181.373827 
L 177.362351 181.382961 
L 184.743345 181.163115 
L 192.800185 180.692296 
L 204.229557 179.797846 
L 204.229557 179.797846 
" style="fill:none;stroke:#000000;stroke-linecap:square;stroke-opacity:0.7;stroke-width:1.2;"/>
   </g>
   <g id="line2d_14">
    <path clip-path="url(#p79a2e7ba69)" d="M 203.71101 160.739295 
L 201.096552 160.574545 
L 184.784072 159.30149 
L 178.153925 159.06296 
L 172.062376 159.056451 
L 165.596582 159.272149 
L 160.17422 159.695706 
L 157.34189 160.118556 
L 155.95867 160.557558 
L 155.396667 160.96104 
L 155.330713 161.267076 
L 155.562595 161.52191 
L 156.250371 161.790275 
L 157.738761 162.061267 
L 161.076902 162.371902 
L 166.30113 162.593709 
L 172.464152 162.626006 
L 180.3533 162.434698 
L 190.264708 161.950433 
L 202.202661 161.132519 
L 204.28492 160.999593 
L 204.28492 160.999593 
" style="fill:none;stroke:#000000;stroke-linecap:square;stroke-opacity:0.7;stroke-width:1.2;"/>
   </g>
   <g id="line2d_15">
    <path clip-path="url(#p79a2e7ba69)" d="M 203.550227 141.972316 
L 200.745675 141.874541 
L 176.513257 140.642136 
L 169.070382 140.604592 
L 162.922275 140.771127 
L 158.676265 141.120394 
L 156.646192 141.483664 
L 155.596784 141.896363 
L 155.266611 142.239763 
L 155.271104 142.487053 
L 155.394236 142.652845 
L 156.042236 142.995023 
L 157.473088 143.333888 
L 160.139684 143.662878 
L 164.110142 143.897484 
L 168.846958 143.942787 
L 175.328543 143.758271 
L 188.764711 143.084976 
L 204.375755 142.176341 
L 204.375755 142.176341 
" style="fill:none;stroke:#000000;stroke-linecap:square;stroke-opacity:0.7;stroke-width:1.2;"/>
   </g>
   <g id="line2d_16">
    <path clip-path="url(#p79a2e7ba69)" d="M 267.3088 217.173857 
L 266.812888 217.151815 
L 264.682176 216.67955 
L 258.640756 215.126653 
L 254.639611 214.394398 
L 251.253508 213.993244 
L 247.418324 213.781525 
L 243.66323 213.805079 
L 238.321967 214.097214 
L 230.660363 214.737262 
L 225.351898 215.387328 
L 221.780256 216.027906 
L 219.69543 216.624173 
L 218.637141 217.128425 
L 218.233995 217.50278 
L 218.202899 217.819376 
L 218.497897 218.071246 
L 219.271015 218.310635 
L 221.528191 218.627195 
L 228.699597 219.274616 
L 236.3334 219.773162 
L 242.264187 219.973723 
L 247.736211 219.929212 
L 252.598613 219.663691 
L 257.473684 219.158342 
L 261.600518 218.514823 
L 267.491852 217.436731 
L 267.491852 217.436731 
" style="fill:none;stroke:#000000;stroke-linecap:square;stroke-opacity:0.7;stroke-width:1.2;"/>
   </g>
   <g id="line2d_17">
    <path clip-path="url(#p79a2e7ba69)" d="M 267.093538 198.355332 
L 266.616268 198.333712 
L 264.493464 197.993888 
L 255.405539 196.254234 
L 251.015582 195.722308 
L 246.672344 195.447408 
L 242.292614 195.421549 
L 236.875428 195.640168 
L 229.712282 196.130492 
L 224.457064 196.70016 
L 221.386745 197.241691 
L 219.744549 197.716369 
L 218.675914 198.241534 
L 218.302281 198.620151 
L 218.25001 198.906971 
L 218.40108 199.146398 
L 218.854297 199.402577 
L 219.820678 199.663459 
L 222.462576 200.031824 
L 228.130151 200.527299 
L 235.245619 200.926333 
L 241.036868 201.043258 
L 246.44366 200.913493 
L 251.628375 200.554289 
L 257.084841 199.948955 
L 267.240959 198.615821 
L 267.240959 198.615821 
" style="fill:none;stroke:#000000;stroke-linecap:square;stroke-opacity:0.7;stroke-width:1.2;"/>
   </g>
   <g id="line2d_18">
    <path clip-path="url(#p79a2e7ba69)" d="M 266.909299 179.536207 
L 265.319477 179.398993 
L 259.950377 178.561077 
L 253.763113 177.681992 
L 248.738558 177.189191 
L 243.900619 176.944506 
L 239.407101 176.928183 
L 232.831504 177.161015 
L 226.826725 177.586854 
L 222.85983 178.076343 
L 220.532889 178.571462 
L 219.140651 179.082154 
L 218.506356 179.495567 
L 218.237411 179.941839 
L 218.322632 180.239128 
L 218.672741 180.520096 
L 219.440728 180.804759 
L 221.107123 181.130411 
L 224.356188 181.510645 
L 230.067615 181.93397 
L 236.043579 182.153389 
L 241.445171 182.128793 
L 246.672191 181.878393 
L 252.770015 181.349775 
L 261.06586 180.378683 
L 266.199391 179.8427 
L 267.148563 179.813182 
L 267.148563 179.813182 
" style="fill:none;stroke:#000000;stroke-linecap:square;stroke-opacity:0.7;stroke-width:1.2;"/>
   </g>
   <g id="line2d_19">
    <path clip-path="url(#p79a2e7ba69)" d="M 266.78159 160.723069 
L 265.148483 160.6061 
L 257.814533 159.726116 
L 250.883738 159.00394 
L 244.904624 158.59841 
L 239.710782 158.452237 
L 233.692779 158.512213 
L 227.708957 158.772984 
L 223.554839 159.165684 
L 221.211431 159.557527 
L 219.604198 160.01187 
L 218.582503 160.540606 
L 218.247374 160.916333 
L 218.195262 161.238856 
L 218.382603 161.552872 
L 218.963172 161.900187 
L 220.287919 162.281379 
L 222.899221 162.697247 
L 226.969033 163.091213 
L 232.216082 163.35646 
L 237.408526 163.388627 
L 242.845475 163.182395 
L 249.235594 162.700644 
L 260.040145 161.609178 
L 266.528704 161.043518 
L 267.172918 161.022684 
L 267.172918 161.022684 
" style="fill:none;stroke:#000000;stroke-linecap:square;stroke-opacity:0.7;stroke-width:1.2;"/>
   </g>
   <g id="line2d_20">
    <path clip-path="url(#p79a2e7ba69)" d="M 266.662907 141.962965 
L 264.000736 141.795705 
L 244.337667 140.226088 
L 237.604609 140.037072 
L 230.099965 140.071214 
L 225.117883 140.274281 
L 221.899369 140.635589 
L 219.813626 141.12097 
L 218.675087 141.638302 
L 218.252145 142.034112 
L 218.140276 142.352578 
L 218.267622 142.725998 
L 218.768895 143.124475 
L 219.61931 143.47045 
L 221.194904 143.852812 
L 223.956313 144.260609 
L 227.891555 144.586893 
L 232.081543 144.715985 
L 236.629127 144.645379 
L 241.813141 144.359042 
L 251.113384 143.578797 
L 266.877878 142.237747 
L 267.293028 142.214299 
L 267.293028 142.214299 
" style="fill:none;stroke:#000000;stroke-linecap:square;stroke-opacity:0.7;stroke-width:1.2;"/>
   </g>
   <g id="line2d_21">
    <path clip-path="url(#p79a2e7ba69)" d="M 330.410951 217.096167 
L 330.105543 217.097202 
L 329.724996 217.041326 
L 326.992682 216.197003 
L 322.676144 214.830145 
L 319.158062 213.966161 
L 315.734122 213.361082 
L 312.720076 213.02201 
L 309.195042 212.84941 
L 305.277639 212.897825 
L 299.952187 213.209537 
L 294.807305 213.698212 
L 289.916054 214.390692 
L 286.410873 215.11243 
L 283.952087 215.838395 
L 282.311227 216.552909 
L 281.505919 217.119455 
L 281.204903 217.615888 
L 281.275158 217.924337 
L 281.668731 218.243638 
L 282.450554 218.533056 
L 284.63708 218.989085 
L 289.54031 219.72191 
L 295.273392 220.361118 
L 300.63812 220.743042 
L 305.619942 220.881779 
L 310.51488 220.776043 
L 314.782558 220.465247 
L 318.750167 219.977118 
L 323.22768 219.167409 
L 328.03012 217.97915 
L 330.124973 217.516349 
L 330.534829 217.492558 
L 330.534829 217.492558 
" style="fill:none;stroke:#000000;stroke-linecap:square;stroke-opacity:0.7;stroke-width:1.2;"/>
   </g>
   <g id="line2d_22">
    <path clip-path="url(#p79a2e7ba69)" d="M 330.154677 198.293041 
L 329.464552 198.252474 
L 326.746985 197.653991 
L 319.880124 195.958384 
L 315.921113 195.223585 
L 312.183884 194.740393 
L 308.247213 194.468497 
L 303.994104 194.43605 
L 298.639462 194.663393 
L 293.203298 195.1143 
L 288.80197 195.716233 
L 285.876595 196.327113 
L 283.653337 197.011169 
L 282.32428 197.620864 
L 281.525818 198.218667 
L 281.247416 198.728198 
L 281.324485 199.100466 
L 281.650107 199.424438 
L 282.268478 199.733426 
L 283.761827 200.160922 
L 286.81999 200.72566 
L 291.805005 201.391874 
L 296.774452 201.8437 
L 301.565161 202.068511 
L 306.19419 202.053506 
L 310.266938 201.832376 
L 314.848746 201.353068 
L 319.955427 200.553586 
L 326.427215 199.241602 
L 329.564593 198.701193 
L 330.36376 198.664658 
L 330.36376 198.664658 
" style="fill:none;stroke:#000000;stroke-linecap:square;stroke-opacity:0.7;stroke-width:1.2;"/>
   </g>
   <g id="line2d_23">
    <path clip-path="url(#p79a2e7ba69)" d="M 329.951964 179.528817 
L 329.282091 179.495639 
L 326.516338 179.061231 
L 315.425426 177.003984 
L 310.527274 176.400081 
L 305.897006 176.079989 
L 301.613353 176.011955 
L 296.193574 176.17421 
L 291.833236 176.496648 
L 288.126855 176.987545 
L 285.369067 177.582048 
L 283.289685 178.278578 
L 282.111188 178.891834 
L 281.551671 179.359136 
L 281.277112 179.853964 
L 281.333319 180.266646 
L 281.687521 180.652781 
L 282.327736 180.99548 
L 283.721478 181.435388 
L 286.326095 181.967565 
L 290.647024 182.582728 
L 295.336754 183.023918 
L 299.526147 183.228226 
L 303.673039 183.230948 
L 307.685724 183.029938 
L 311.961319 182.609991 
L 317.336355 181.843097 
L 329.941013 179.877668 
L 330.260325 179.878001 
L 330.260325 179.878001 
" style="fill:none;stroke:#000000;stroke-linecap:square;stroke-opacity:0.7;stroke-width:1.2;"/>
   </g>
   <g id="line2d_24">
    <path clip-path="url(#p79a2e7ba69)" d="M 329.810422 160.760429 
L 328.002706 160.616055 
L 323.491533 159.958166 
L 314.628985 158.655351 
L 308.361501 157.977385 
L 303.339785 157.65056 
L 298.417179 157.542374 
L 293.071946 157.653355 
L 289.436753 157.93623 
L 286.448952 158.406676 
L 284.207436 159.007669 
L 282.797339 159.584378 
L 281.791628 160.215389 
L 281.345576 160.70894 
L 281.209907 161.148657 
L 281.375076 161.610111 
L 281.862323 162.028369 
L 282.968167 162.523952 
L 285.009614 163.076587 
L 287.972731 163.616675 
L 292.110693 164.117332 
L 296.337547 164.397182 
L 300.444866 164.449767 
L 304.543858 164.280811 
L 309.127342 163.860179 
L 315.182508 163.052693 
L 327.933667 161.232041 
L 330.227344 161.093904 
L 330.227344 161.093904 
" style="fill:none;stroke:#000000;stroke-linecap:square;stroke-opacity:0.7;stroke-width:1.2;"/>
   </g>
   <g id="line2d_25">
    <path clip-path="url(#p79a2e7ba69)" d="M 329.720793 141.973426 
L 327.60513 141.828783 
L 320.484439 140.992164 
L 311.032644 139.959179 
L 304.532208 139.454407 
L 298.179402 139.182393 
L 292.521592 139.12546 
L 289.255297 139.255057 
L 286.609997 139.560884 
L 284.464692 140.045692 
L 282.936673 140.617758 
L 281.87622 141.248522 
L 281.367368 141.764714 
L 281.167063 142.245739 
L 281.249343 142.734362 
L 281.48656 143.066627 
L 282.176157 143.57425 
L 283.394542 144.100574 
L 285.43585 144.664048 
L 287.953882 145.126991 
L 291.502568 145.532856 
L 295.073845 145.722255 
L 299.065353 145.702808 
L 302.942173 145.473797 
L 308.29113 144.911099 
L 318.376683 143.549085 
L 326.1958 142.594625 
L 330.290589 142.285085 
L 330.290589 142.285085 
" style="fill:none;stroke:#000000;stroke-linecap:square;stroke-opacity:0.7;stroke-width:1.2;"/>
   </g>
  </g>
 </g>
 <defs>
  <clipPath id="p79a2e7ba69">
   <rect height="329.04" width="329.04" x="15.48" y="15.48"/>
  </clipPath>
 </defs>
</svg>
